G75*
%MOIN*%
%OFA0B0*%
%FSLAX25Y25*%
%IPPOS*%
%LPD*%
%AMOC8*
5,1,8,0,0,1.08239X$1,22.5*
%
%ADD10R,0.02100X0.07800*%
%ADD11R,0.05118X0.06299*%
%ADD12R,0.05906X0.05118*%
%ADD13R,0.01811X0.04921*%
%ADD14C,0.00404*%
%ADD15R,0.06300X0.04600*%
%ADD16R,0.05118X0.05906*%
%ADD17R,0.07900X0.05900*%
%ADD18R,0.07900X0.15000*%
%ADD19C,0.01181*%
D10*
X0043765Y0086685D03*
X0048765Y0086685D03*
X0053765Y0086685D03*
X0058765Y0086685D03*
X0058765Y0106185D03*
X0053765Y0106185D03*
X0048765Y0106185D03*
X0043765Y0106185D03*
X0043745Y0141820D03*
X0048745Y0141820D03*
X0053745Y0141820D03*
X0058745Y0141820D03*
X0058745Y0161320D03*
X0053745Y0161320D03*
X0048745Y0161320D03*
X0043745Y0161320D03*
X0043750Y0196920D03*
X0048750Y0196920D03*
X0053750Y0196920D03*
X0058750Y0196920D03*
X0058750Y0216420D03*
X0053750Y0216420D03*
X0048750Y0216420D03*
X0043750Y0216420D03*
X0043745Y0252025D03*
X0048745Y0252025D03*
X0053745Y0252025D03*
X0058745Y0252025D03*
X0058745Y0271525D03*
X0053745Y0271525D03*
X0048745Y0271525D03*
X0043745Y0271525D03*
X0043745Y0307145D03*
X0048745Y0307145D03*
X0053745Y0307145D03*
X0058745Y0307145D03*
X0058745Y0326645D03*
X0053745Y0326645D03*
X0048745Y0326645D03*
X0043745Y0326645D03*
X0044100Y0362250D03*
X0049100Y0362250D03*
X0054100Y0362250D03*
X0059100Y0362250D03*
X0059100Y0381750D03*
X0054100Y0381750D03*
X0049100Y0381750D03*
X0044100Y0381750D03*
X0043745Y0417370D03*
X0048745Y0417370D03*
X0053745Y0417370D03*
X0058745Y0417370D03*
X0058745Y0436870D03*
X0053745Y0436870D03*
X0048745Y0436870D03*
X0043745Y0436870D03*
X0043745Y0472485D03*
X0048745Y0472485D03*
X0053745Y0472485D03*
X0058745Y0472485D03*
X0058745Y0491985D03*
X0053745Y0491985D03*
X0048745Y0491985D03*
X0043745Y0491985D03*
X0043740Y0527600D03*
X0048740Y0527600D03*
X0053740Y0527600D03*
X0058740Y0527600D03*
X0058740Y0547100D03*
X0053740Y0547100D03*
X0048740Y0547100D03*
X0043740Y0547100D03*
X0043750Y0582730D03*
X0048750Y0582730D03*
X0053750Y0582730D03*
X0058750Y0582730D03*
X0058750Y0602230D03*
X0053750Y0602230D03*
X0048750Y0602230D03*
X0043750Y0602230D03*
X0043745Y0637845D03*
X0048745Y0637845D03*
X0053745Y0637845D03*
X0058745Y0637845D03*
X0058745Y0657345D03*
X0053745Y0657345D03*
X0048745Y0657345D03*
X0043745Y0657345D03*
X0043760Y0692965D03*
X0048760Y0692965D03*
X0053760Y0692965D03*
X0058760Y0692965D03*
X0058760Y0712465D03*
X0053760Y0712465D03*
X0048760Y0712465D03*
X0043760Y0712465D03*
X0043745Y0748075D03*
X0048745Y0748075D03*
X0053745Y0748075D03*
X0058745Y0748075D03*
X0058745Y0767575D03*
X0053745Y0767575D03*
X0048745Y0767575D03*
X0043745Y0767575D03*
X0043745Y0803185D03*
X0048745Y0803185D03*
X0053745Y0803185D03*
X0058745Y0803185D03*
X0058745Y0822685D03*
X0053745Y0822685D03*
X0048745Y0822685D03*
X0043745Y0822685D03*
X0043695Y0858245D03*
X0048695Y0858245D03*
X0053695Y0858245D03*
X0058695Y0858245D03*
X0058695Y0877745D03*
X0053695Y0877745D03*
X0048695Y0877745D03*
X0043695Y0877745D03*
X0043665Y0913425D03*
X0048665Y0913425D03*
X0053665Y0913425D03*
X0058665Y0913425D03*
X0058665Y0932925D03*
X0053665Y0932925D03*
X0048665Y0932925D03*
X0043665Y0932925D03*
X0098835Y0932930D03*
X0103835Y0932930D03*
X0108835Y0932930D03*
X0113835Y0932930D03*
X0113835Y0913430D03*
X0108835Y0913430D03*
X0103835Y0913430D03*
X0098835Y0913430D03*
X0098860Y0877825D03*
X0103860Y0877825D03*
X0108860Y0877825D03*
X0113860Y0877825D03*
X0113860Y0858325D03*
X0108860Y0858325D03*
X0103860Y0858325D03*
X0098860Y0858325D03*
X0098890Y0822705D03*
X0103890Y0822705D03*
X0108890Y0822705D03*
X0113890Y0822705D03*
X0113890Y0803205D03*
X0108890Y0803205D03*
X0103890Y0803205D03*
X0098890Y0803205D03*
X0098835Y0767615D03*
X0103835Y0767615D03*
X0108835Y0767615D03*
X0113835Y0767615D03*
X0113835Y0748115D03*
X0108835Y0748115D03*
X0103835Y0748115D03*
X0098835Y0748115D03*
X0098865Y0712460D03*
X0103865Y0712460D03*
X0108865Y0712460D03*
X0113865Y0712460D03*
X0113865Y0692960D03*
X0108865Y0692960D03*
X0103865Y0692960D03*
X0098865Y0692960D03*
X0098860Y0657345D03*
X0103860Y0657345D03*
X0108860Y0657345D03*
X0113860Y0657345D03*
X0113860Y0637845D03*
X0108860Y0637845D03*
X0103860Y0637845D03*
X0098860Y0637845D03*
X0098850Y0602210D03*
X0103850Y0602210D03*
X0108850Y0602210D03*
X0113850Y0602210D03*
X0113850Y0582710D03*
X0108850Y0582710D03*
X0103850Y0582710D03*
X0098850Y0582710D03*
X0098870Y0547105D03*
X0103870Y0547105D03*
X0108870Y0547105D03*
X0113870Y0547105D03*
X0113870Y0527605D03*
X0108870Y0527605D03*
X0103870Y0527605D03*
X0098870Y0527605D03*
X0098825Y0491975D03*
X0103825Y0491975D03*
X0108825Y0491975D03*
X0113825Y0491975D03*
X0113825Y0472475D03*
X0108825Y0472475D03*
X0103825Y0472475D03*
X0098825Y0472475D03*
X0098860Y0436865D03*
X0103860Y0436865D03*
X0108860Y0436865D03*
X0113860Y0436865D03*
X0113860Y0417365D03*
X0108860Y0417365D03*
X0103860Y0417365D03*
X0098860Y0417365D03*
X0098865Y0381765D03*
X0103865Y0381765D03*
X0108865Y0381765D03*
X0113865Y0381765D03*
X0113865Y0362265D03*
X0108865Y0362265D03*
X0103865Y0362265D03*
X0098865Y0362265D03*
X0098865Y0326640D03*
X0103865Y0326640D03*
X0108865Y0326640D03*
X0113865Y0326640D03*
X0113865Y0307140D03*
X0108865Y0307140D03*
X0103865Y0307140D03*
X0098865Y0307140D03*
X0098895Y0271525D03*
X0103895Y0271525D03*
X0108895Y0271525D03*
X0113895Y0271525D03*
X0113895Y0252025D03*
X0108895Y0252025D03*
X0103895Y0252025D03*
X0098895Y0252025D03*
X0098895Y0216420D03*
X0103895Y0216420D03*
X0108895Y0216420D03*
X0113895Y0216420D03*
X0113895Y0196920D03*
X0108895Y0196920D03*
X0103895Y0196920D03*
X0098895Y0196920D03*
X0098865Y0161240D03*
X0103865Y0161240D03*
X0108865Y0161240D03*
X0113865Y0161240D03*
X0113865Y0141740D03*
X0108865Y0141740D03*
X0103865Y0141740D03*
X0098865Y0141740D03*
X0098875Y0106145D03*
X0103875Y0106145D03*
X0108875Y0106145D03*
X0113875Y0106145D03*
X0113875Y0086645D03*
X0108875Y0086645D03*
X0103875Y0086645D03*
X0098875Y0086645D03*
X0154005Y0086690D03*
X0159005Y0086690D03*
X0164005Y0086690D03*
X0169005Y0086690D03*
X0169005Y0106190D03*
X0164005Y0106190D03*
X0159005Y0106190D03*
X0154005Y0106190D03*
X0153995Y0141810D03*
X0158995Y0141810D03*
X0163995Y0141810D03*
X0168995Y0141810D03*
X0168995Y0161310D03*
X0163995Y0161310D03*
X0158995Y0161310D03*
X0153995Y0161310D03*
X0153990Y0196960D03*
X0158990Y0196960D03*
X0163990Y0196960D03*
X0168990Y0196960D03*
X0168990Y0216460D03*
X0163990Y0216460D03*
X0158990Y0216460D03*
X0153990Y0216460D03*
X0153980Y0252030D03*
X0158980Y0252030D03*
X0163980Y0252030D03*
X0168980Y0252030D03*
X0168980Y0271530D03*
X0163980Y0271530D03*
X0158980Y0271530D03*
X0153980Y0271530D03*
X0153980Y0307140D03*
X0158980Y0307140D03*
X0163980Y0307140D03*
X0168980Y0307140D03*
X0168980Y0326640D03*
X0163980Y0326640D03*
X0158980Y0326640D03*
X0153980Y0326640D03*
X0153985Y0362270D03*
X0158985Y0362270D03*
X0163985Y0362270D03*
X0168985Y0362270D03*
X0168985Y0381770D03*
X0163985Y0381770D03*
X0158985Y0381770D03*
X0153985Y0381770D03*
X0153980Y0417380D03*
X0158980Y0417380D03*
X0163980Y0417380D03*
X0168980Y0417380D03*
X0168980Y0436880D03*
X0163980Y0436880D03*
X0158980Y0436880D03*
X0153980Y0436880D03*
X0153945Y0472475D03*
X0158945Y0472475D03*
X0163945Y0472475D03*
X0168945Y0472475D03*
X0168945Y0491975D03*
X0163945Y0491975D03*
X0158945Y0491975D03*
X0153945Y0491975D03*
X0153975Y0527615D03*
X0158975Y0527615D03*
X0163975Y0527615D03*
X0168975Y0527615D03*
X0168975Y0547115D03*
X0163975Y0547115D03*
X0158975Y0547115D03*
X0153975Y0547115D03*
X0153990Y0582705D03*
X0158990Y0582705D03*
X0163990Y0582705D03*
X0168990Y0582705D03*
X0168990Y0602205D03*
X0163990Y0602205D03*
X0158990Y0602205D03*
X0153990Y0602205D03*
X0153990Y0637825D03*
X0158990Y0637825D03*
X0163990Y0637825D03*
X0168990Y0637825D03*
X0168990Y0657325D03*
X0163990Y0657325D03*
X0158990Y0657325D03*
X0153990Y0657325D03*
X0153975Y0692960D03*
X0158975Y0692960D03*
X0163975Y0692960D03*
X0168975Y0692960D03*
X0168975Y0712460D03*
X0163975Y0712460D03*
X0158975Y0712460D03*
X0153975Y0712460D03*
X0153960Y0748055D03*
X0158960Y0748055D03*
X0163960Y0748055D03*
X0168960Y0748055D03*
X0168960Y0767555D03*
X0163960Y0767555D03*
X0158960Y0767555D03*
X0153960Y0767555D03*
X0153965Y0803210D03*
X0158965Y0803210D03*
X0163965Y0803210D03*
X0168965Y0803210D03*
X0168965Y0822710D03*
X0163965Y0822710D03*
X0158965Y0822710D03*
X0153965Y0822710D03*
X0153980Y0858310D03*
X0158980Y0858310D03*
X0163980Y0858310D03*
X0168980Y0858310D03*
X0168980Y0877810D03*
X0163980Y0877810D03*
X0158980Y0877810D03*
X0153980Y0877810D03*
X0153990Y0913445D03*
X0158990Y0913445D03*
X0163990Y0913445D03*
X0168990Y0913445D03*
X0168990Y0932945D03*
X0163990Y0932945D03*
X0158990Y0932945D03*
X0153990Y0932945D03*
X0209095Y0932955D03*
X0214095Y0932955D03*
X0219095Y0932955D03*
X0224095Y0932955D03*
X0224095Y0913455D03*
X0219095Y0913455D03*
X0214095Y0913455D03*
X0209095Y0913455D03*
X0209110Y0877815D03*
X0214110Y0877815D03*
X0219110Y0877815D03*
X0224110Y0877815D03*
X0224110Y0858315D03*
X0219110Y0858315D03*
X0214110Y0858315D03*
X0209110Y0858315D03*
X0209105Y0822715D03*
X0214105Y0822715D03*
X0219105Y0822715D03*
X0224105Y0822715D03*
X0224105Y0803215D03*
X0219105Y0803215D03*
X0214105Y0803215D03*
X0209105Y0803215D03*
X0209080Y0767580D03*
X0214080Y0767580D03*
X0219080Y0767580D03*
X0224080Y0767580D03*
X0224080Y0748080D03*
X0219080Y0748080D03*
X0214080Y0748080D03*
X0209080Y0748080D03*
X0209105Y0712470D03*
X0214105Y0712470D03*
X0219105Y0712470D03*
X0224105Y0712470D03*
X0224105Y0692970D03*
X0219105Y0692970D03*
X0214105Y0692970D03*
X0209105Y0692970D03*
X0209100Y0657330D03*
X0214100Y0657330D03*
X0219100Y0657330D03*
X0224100Y0657330D03*
X0224100Y0637830D03*
X0219100Y0637830D03*
X0214100Y0637830D03*
X0209100Y0637830D03*
X0209105Y0602235D03*
X0214105Y0602235D03*
X0219105Y0602235D03*
X0224105Y0602235D03*
X0224105Y0582735D03*
X0219105Y0582735D03*
X0214105Y0582735D03*
X0209105Y0582735D03*
X0209070Y0547080D03*
X0214070Y0547080D03*
X0219070Y0547080D03*
X0224070Y0547080D03*
X0224070Y0527580D03*
X0219070Y0527580D03*
X0214070Y0527580D03*
X0209070Y0527580D03*
X0209105Y0491990D03*
X0214105Y0491990D03*
X0219105Y0491990D03*
X0224105Y0491990D03*
X0224105Y0472490D03*
X0219105Y0472490D03*
X0214105Y0472490D03*
X0209105Y0472490D03*
X0209085Y0436880D03*
X0214085Y0436880D03*
X0219085Y0436880D03*
X0224085Y0436880D03*
X0224085Y0417380D03*
X0219085Y0417380D03*
X0214085Y0417380D03*
X0209085Y0417380D03*
X0209255Y0381750D03*
X0214255Y0381750D03*
X0219255Y0381750D03*
X0224255Y0381750D03*
X0224255Y0362250D03*
X0219255Y0362250D03*
X0214255Y0362250D03*
X0209255Y0362250D03*
X0209255Y0326645D03*
X0214255Y0326645D03*
X0219255Y0326645D03*
X0224255Y0326645D03*
X0224255Y0307145D03*
X0219255Y0307145D03*
X0214255Y0307145D03*
X0209255Y0307145D03*
X0209250Y0271530D03*
X0214250Y0271530D03*
X0219250Y0271530D03*
X0224250Y0271530D03*
X0224250Y0252030D03*
X0219250Y0252030D03*
X0214250Y0252030D03*
X0209250Y0252030D03*
X0209255Y0216370D03*
X0214255Y0216370D03*
X0219255Y0216370D03*
X0224255Y0216370D03*
X0224255Y0196870D03*
X0219255Y0196870D03*
X0214255Y0196870D03*
X0209255Y0196870D03*
X0209280Y0161250D03*
X0214280Y0161250D03*
X0219280Y0161250D03*
X0224280Y0161250D03*
X0224280Y0141750D03*
X0219280Y0141750D03*
X0214280Y0141750D03*
X0209280Y0141750D03*
X0209250Y0106150D03*
X0214250Y0106150D03*
X0219250Y0106150D03*
X0224250Y0106150D03*
X0224250Y0086650D03*
X0219250Y0086650D03*
X0214250Y0086650D03*
X0209250Y0086650D03*
X0264120Y0086660D03*
X0269120Y0086660D03*
X0274120Y0086660D03*
X0279120Y0086660D03*
X0279120Y0106160D03*
X0274120Y0106160D03*
X0269120Y0106160D03*
X0264120Y0106160D03*
X0264110Y0141830D03*
X0269110Y0141830D03*
X0274110Y0141830D03*
X0279110Y0141830D03*
X0279110Y0161330D03*
X0274110Y0161330D03*
X0269110Y0161330D03*
X0264110Y0161330D03*
X0264105Y0196905D03*
X0269105Y0196905D03*
X0274105Y0196905D03*
X0279105Y0196905D03*
X0279105Y0216405D03*
X0274105Y0216405D03*
X0269105Y0216405D03*
X0264105Y0216405D03*
X0264110Y0252030D03*
X0269110Y0252030D03*
X0274110Y0252030D03*
X0279110Y0252030D03*
X0279110Y0271530D03*
X0274110Y0271530D03*
X0269110Y0271530D03*
X0264110Y0271530D03*
X0264100Y0307145D03*
X0269100Y0307145D03*
X0274100Y0307145D03*
X0279100Y0307145D03*
X0279100Y0326645D03*
X0274100Y0326645D03*
X0269100Y0326645D03*
X0264100Y0326645D03*
X0264110Y0362275D03*
X0269110Y0362275D03*
X0274110Y0362275D03*
X0279110Y0362275D03*
X0279110Y0381775D03*
X0274110Y0381775D03*
X0269110Y0381775D03*
X0264110Y0381775D03*
X0264205Y0417375D03*
X0269205Y0417375D03*
X0274205Y0417375D03*
X0279205Y0417375D03*
X0279205Y0436875D03*
X0274205Y0436875D03*
X0269205Y0436875D03*
X0264205Y0436875D03*
X0264205Y0472490D03*
X0269205Y0472490D03*
X0274205Y0472490D03*
X0279205Y0472490D03*
X0279205Y0491990D03*
X0274205Y0491990D03*
X0269205Y0491990D03*
X0264205Y0491990D03*
X0264215Y0527605D03*
X0269215Y0527605D03*
X0274215Y0527605D03*
X0279215Y0527605D03*
X0279215Y0547105D03*
X0274215Y0547105D03*
X0269215Y0547105D03*
X0264215Y0547105D03*
X0264245Y0582720D03*
X0269245Y0582720D03*
X0274245Y0582720D03*
X0279245Y0582720D03*
X0279245Y0602220D03*
X0274245Y0602220D03*
X0269245Y0602220D03*
X0264245Y0602220D03*
X0264235Y0637850D03*
X0269235Y0637850D03*
X0274235Y0637850D03*
X0279235Y0637850D03*
X0279235Y0657350D03*
X0274235Y0657350D03*
X0269235Y0657350D03*
X0264235Y0657350D03*
X0264250Y0692955D03*
X0269250Y0692955D03*
X0274250Y0692955D03*
X0279250Y0692955D03*
X0279250Y0712455D03*
X0274250Y0712455D03*
X0269250Y0712455D03*
X0264250Y0712455D03*
X0264225Y0748085D03*
X0269225Y0748085D03*
X0274225Y0748085D03*
X0279225Y0748085D03*
X0279225Y0767585D03*
X0274225Y0767585D03*
X0269225Y0767585D03*
X0264225Y0767585D03*
X0264220Y0803205D03*
X0269220Y0803205D03*
X0274220Y0803205D03*
X0279220Y0803205D03*
X0279220Y0822705D03*
X0274220Y0822705D03*
X0269220Y0822705D03*
X0264220Y0822705D03*
X0264205Y0858310D03*
X0269205Y0858310D03*
X0274205Y0858310D03*
X0279205Y0858310D03*
X0279205Y0877810D03*
X0274205Y0877810D03*
X0269205Y0877810D03*
X0264205Y0877810D03*
X0264215Y0913445D03*
X0269215Y0913445D03*
X0274215Y0913445D03*
X0279215Y0913445D03*
X0279215Y0932945D03*
X0274215Y0932945D03*
X0269215Y0932945D03*
X0264215Y0932945D03*
X0319365Y0932910D03*
X0324365Y0932910D03*
X0329365Y0932910D03*
X0334365Y0932910D03*
X0334365Y0913410D03*
X0329365Y0913410D03*
X0324365Y0913410D03*
X0319365Y0913410D03*
X0319305Y0877830D03*
X0324305Y0877830D03*
X0329305Y0877830D03*
X0334305Y0877830D03*
X0334305Y0858330D03*
X0329305Y0858330D03*
X0324305Y0858330D03*
X0319305Y0858330D03*
X0319310Y0822710D03*
X0324310Y0822710D03*
X0329310Y0822710D03*
X0334310Y0822710D03*
X0334310Y0803210D03*
X0329310Y0803210D03*
X0324310Y0803210D03*
X0319310Y0803210D03*
X0319340Y0767590D03*
X0324340Y0767590D03*
X0329340Y0767590D03*
X0334340Y0767590D03*
X0334340Y0748090D03*
X0329340Y0748090D03*
X0324340Y0748090D03*
X0319340Y0748090D03*
X0319345Y0712465D03*
X0324345Y0712465D03*
X0329345Y0712465D03*
X0334345Y0712465D03*
X0334345Y0692965D03*
X0329345Y0692965D03*
X0324345Y0692965D03*
X0319345Y0692965D03*
X0319375Y0657345D03*
X0324375Y0657345D03*
X0329375Y0657345D03*
X0334375Y0657345D03*
X0334375Y0637845D03*
X0329375Y0637845D03*
X0324375Y0637845D03*
X0319375Y0637845D03*
X0319335Y0602235D03*
X0324335Y0602235D03*
X0329335Y0602235D03*
X0334335Y0602235D03*
X0334335Y0582735D03*
X0329335Y0582735D03*
X0324335Y0582735D03*
X0319335Y0582735D03*
X0319335Y0547105D03*
X0324335Y0547105D03*
X0329335Y0547105D03*
X0334335Y0547105D03*
X0334335Y0527605D03*
X0329335Y0527605D03*
X0324335Y0527605D03*
X0319335Y0527605D03*
X0319335Y0491995D03*
X0324335Y0491995D03*
X0329335Y0491995D03*
X0334335Y0491995D03*
X0334335Y0472495D03*
X0329335Y0472495D03*
X0324335Y0472495D03*
X0319335Y0472495D03*
X0319325Y0436855D03*
X0324325Y0436855D03*
X0329325Y0436855D03*
X0334325Y0436855D03*
X0334325Y0417355D03*
X0329325Y0417355D03*
X0324325Y0417355D03*
X0319325Y0417355D03*
X0319345Y0381770D03*
X0324345Y0381770D03*
X0329345Y0381770D03*
X0334345Y0381770D03*
X0334345Y0362270D03*
X0329345Y0362270D03*
X0324345Y0362270D03*
X0319345Y0362270D03*
X0319345Y0326645D03*
X0324345Y0326645D03*
X0329345Y0326645D03*
X0334345Y0326645D03*
X0334345Y0307145D03*
X0329345Y0307145D03*
X0324345Y0307145D03*
X0319345Y0307145D03*
X0319340Y0271530D03*
X0324340Y0271530D03*
X0329340Y0271530D03*
X0334340Y0271530D03*
X0334340Y0252030D03*
X0329340Y0252030D03*
X0324340Y0252030D03*
X0319340Y0252030D03*
X0319345Y0216390D03*
X0324345Y0216390D03*
X0329345Y0216390D03*
X0334345Y0216390D03*
X0334345Y0196890D03*
X0329345Y0196890D03*
X0324345Y0196890D03*
X0319345Y0196890D03*
X0319330Y0161290D03*
X0324330Y0161290D03*
X0329330Y0161290D03*
X0334330Y0161290D03*
X0334330Y0141790D03*
X0329330Y0141790D03*
X0324330Y0141790D03*
X0319330Y0141790D03*
X0319360Y0106160D03*
X0324360Y0106160D03*
X0329360Y0106160D03*
X0334360Y0106160D03*
X0334360Y0086660D03*
X0329360Y0086660D03*
X0324360Y0086660D03*
X0319360Y0086660D03*
X0374475Y0086660D03*
X0379475Y0086660D03*
X0384475Y0086660D03*
X0389475Y0086660D03*
X0389475Y0106160D03*
X0384475Y0106160D03*
X0379475Y0106160D03*
X0374475Y0106160D03*
X0374450Y0141770D03*
X0379450Y0141770D03*
X0384450Y0141770D03*
X0389450Y0141770D03*
X0389450Y0161270D03*
X0384450Y0161270D03*
X0379450Y0161270D03*
X0374450Y0161270D03*
X0374455Y0196910D03*
X0379455Y0196910D03*
X0384455Y0196910D03*
X0389455Y0196910D03*
X0389455Y0216410D03*
X0384455Y0216410D03*
X0379455Y0216410D03*
X0374455Y0216410D03*
X0374465Y0252030D03*
X0379465Y0252030D03*
X0384465Y0252030D03*
X0389465Y0252030D03*
X0389465Y0271530D03*
X0384465Y0271530D03*
X0379465Y0271530D03*
X0374465Y0271530D03*
X0374450Y0307145D03*
X0379450Y0307145D03*
X0384450Y0307145D03*
X0389450Y0307145D03*
X0389450Y0326645D03*
X0384450Y0326645D03*
X0379450Y0326645D03*
X0374450Y0326645D03*
X0374450Y0362265D03*
X0379450Y0362265D03*
X0384450Y0362265D03*
X0389450Y0362265D03*
X0389450Y0381765D03*
X0384450Y0381765D03*
X0379450Y0381765D03*
X0374450Y0381765D03*
X0374390Y0417385D03*
X0379390Y0417385D03*
X0384390Y0417385D03*
X0389390Y0417385D03*
X0389390Y0436885D03*
X0384390Y0436885D03*
X0379390Y0436885D03*
X0374390Y0436885D03*
X0374490Y0472500D03*
X0379490Y0472500D03*
X0384490Y0472500D03*
X0389490Y0472500D03*
X0389490Y0492000D03*
X0384490Y0492000D03*
X0379490Y0492000D03*
X0374490Y0492000D03*
X0374410Y0527595D03*
X0379410Y0527595D03*
X0384410Y0527595D03*
X0389410Y0527595D03*
X0389410Y0547095D03*
X0384410Y0547095D03*
X0379410Y0547095D03*
X0374410Y0547095D03*
X0374455Y0582730D03*
X0379455Y0582730D03*
X0384455Y0582730D03*
X0389455Y0582730D03*
X0389455Y0602230D03*
X0384455Y0602230D03*
X0379455Y0602230D03*
X0374455Y0602230D03*
X0374465Y0637840D03*
X0379465Y0637840D03*
X0384465Y0637840D03*
X0389465Y0637840D03*
X0389465Y0657340D03*
X0384465Y0657340D03*
X0379465Y0657340D03*
X0374465Y0657340D03*
X0374465Y0692970D03*
X0379465Y0692970D03*
X0384465Y0692970D03*
X0389465Y0692970D03*
X0389465Y0712470D03*
X0384465Y0712470D03*
X0379465Y0712470D03*
X0374465Y0712470D03*
X0374445Y0748095D03*
X0379445Y0748095D03*
X0384445Y0748095D03*
X0389445Y0748095D03*
X0389445Y0767595D03*
X0384445Y0767595D03*
X0379445Y0767595D03*
X0374445Y0767595D03*
X0374455Y0803195D03*
X0379455Y0803195D03*
X0384455Y0803195D03*
X0389455Y0803195D03*
X0389455Y0822695D03*
X0384455Y0822695D03*
X0379455Y0822695D03*
X0374455Y0822695D03*
X0374485Y0858325D03*
X0379485Y0858325D03*
X0384485Y0858325D03*
X0389485Y0858325D03*
X0389485Y0877825D03*
X0384485Y0877825D03*
X0379485Y0877825D03*
X0374485Y0877825D03*
X0374460Y0913440D03*
X0379460Y0913440D03*
X0384460Y0913440D03*
X0389460Y0913440D03*
X0389460Y0932940D03*
X0384460Y0932940D03*
X0379460Y0932940D03*
X0374460Y0932940D03*
X0429580Y0932920D03*
X0434580Y0932920D03*
X0439580Y0932920D03*
X0444580Y0932920D03*
X0444580Y0913420D03*
X0439580Y0913420D03*
X0434580Y0913420D03*
X0429580Y0913420D03*
X0429600Y0877820D03*
X0434600Y0877820D03*
X0439600Y0877820D03*
X0444600Y0877820D03*
X0444600Y0858320D03*
X0439600Y0858320D03*
X0434600Y0858320D03*
X0429600Y0858320D03*
X0429540Y0822715D03*
X0434540Y0822715D03*
X0439540Y0822715D03*
X0444540Y0822715D03*
X0444540Y0803215D03*
X0439540Y0803215D03*
X0434540Y0803215D03*
X0429540Y0803215D03*
X0429575Y0767600D03*
X0434575Y0767600D03*
X0439575Y0767600D03*
X0444575Y0767600D03*
X0444575Y0748100D03*
X0439575Y0748100D03*
X0434575Y0748100D03*
X0429575Y0748100D03*
X0429615Y0712460D03*
X0434615Y0712460D03*
X0439615Y0712460D03*
X0444615Y0712460D03*
X0444615Y0692960D03*
X0439615Y0692960D03*
X0434615Y0692960D03*
X0429615Y0692960D03*
X0429605Y0657345D03*
X0434605Y0657345D03*
X0439605Y0657345D03*
X0444605Y0657345D03*
X0444605Y0637845D03*
X0439605Y0637845D03*
X0434605Y0637845D03*
X0429605Y0637845D03*
X0429580Y0602235D03*
X0434580Y0602235D03*
X0439580Y0602235D03*
X0444580Y0602235D03*
X0444580Y0582735D03*
X0439580Y0582735D03*
X0434580Y0582735D03*
X0429580Y0582735D03*
X0429575Y0547100D03*
X0434575Y0547100D03*
X0439575Y0547100D03*
X0444575Y0547100D03*
X0444575Y0527600D03*
X0439575Y0527600D03*
X0434575Y0527600D03*
X0429575Y0527600D03*
X0429570Y0492020D03*
X0434570Y0492020D03*
X0439570Y0492020D03*
X0444570Y0492020D03*
X0444570Y0472520D03*
X0439570Y0472520D03*
X0434570Y0472520D03*
X0429570Y0472520D03*
X0429605Y0436870D03*
X0434605Y0436870D03*
X0439605Y0436870D03*
X0444605Y0436870D03*
X0444605Y0417370D03*
X0439605Y0417370D03*
X0434605Y0417370D03*
X0429605Y0417370D03*
X0429785Y0381765D03*
X0434785Y0381765D03*
X0439785Y0381765D03*
X0444785Y0381765D03*
X0444785Y0362265D03*
X0439785Y0362265D03*
X0434785Y0362265D03*
X0429785Y0362265D03*
X0429780Y0326650D03*
X0434780Y0326650D03*
X0439780Y0326650D03*
X0444780Y0326650D03*
X0444780Y0307150D03*
X0439780Y0307150D03*
X0434780Y0307150D03*
X0429780Y0307150D03*
X0429775Y0271530D03*
X0434775Y0271530D03*
X0439775Y0271530D03*
X0444775Y0271530D03*
X0444775Y0252030D03*
X0439775Y0252030D03*
X0434775Y0252030D03*
X0429775Y0252030D03*
X0429795Y0216410D03*
X0434795Y0216410D03*
X0439795Y0216410D03*
X0444795Y0216410D03*
X0444795Y0196910D03*
X0439795Y0196910D03*
X0434795Y0196910D03*
X0429795Y0196910D03*
X0429760Y0161305D03*
X0434760Y0161305D03*
X0439760Y0161305D03*
X0444760Y0161305D03*
X0444760Y0141805D03*
X0439760Y0141805D03*
X0434760Y0141805D03*
X0429760Y0141805D03*
X0429780Y0106185D03*
X0434780Y0106185D03*
X0439780Y0106185D03*
X0444780Y0106185D03*
X0444780Y0086685D03*
X0439780Y0086685D03*
X0434780Y0086685D03*
X0429780Y0086685D03*
X0484530Y0086640D03*
X0489530Y0086640D03*
X0494530Y0086640D03*
X0499530Y0086640D03*
X0499530Y0106140D03*
X0494530Y0106140D03*
X0489530Y0106140D03*
X0484530Y0106140D03*
X0484555Y0141800D03*
X0489555Y0141800D03*
X0494555Y0141800D03*
X0499555Y0141800D03*
X0499555Y0161300D03*
X0494555Y0161300D03*
X0489555Y0161300D03*
X0484555Y0161300D03*
X0484565Y0196900D03*
X0489565Y0196900D03*
X0494565Y0196900D03*
X0499565Y0196900D03*
X0499565Y0216400D03*
X0494565Y0216400D03*
X0489565Y0216400D03*
X0484565Y0216400D03*
X0484530Y0252030D03*
X0489530Y0252030D03*
X0494530Y0252030D03*
X0499530Y0252030D03*
X0499530Y0271530D03*
X0494530Y0271530D03*
X0489530Y0271530D03*
X0484530Y0271530D03*
X0484550Y0307140D03*
X0489550Y0307140D03*
X0494550Y0307140D03*
X0499550Y0307140D03*
X0499550Y0326640D03*
X0494550Y0326640D03*
X0489550Y0326640D03*
X0484550Y0326640D03*
X0484555Y0362270D03*
X0489555Y0362270D03*
X0494555Y0362270D03*
X0499555Y0362270D03*
X0499555Y0381770D03*
X0494555Y0381770D03*
X0489555Y0381770D03*
X0484555Y0381770D03*
X0484690Y0417380D03*
X0489690Y0417380D03*
X0494690Y0417380D03*
X0499690Y0417380D03*
X0499690Y0436880D03*
X0494690Y0436880D03*
X0489690Y0436880D03*
X0484690Y0436880D03*
X0484700Y0472475D03*
X0489700Y0472475D03*
X0494700Y0472475D03*
X0499700Y0472475D03*
X0499700Y0491975D03*
X0494700Y0491975D03*
X0489700Y0491975D03*
X0484700Y0491975D03*
X0484685Y0527605D03*
X0489685Y0527605D03*
X0494685Y0527605D03*
X0499685Y0527605D03*
X0499685Y0547105D03*
X0494685Y0547105D03*
X0489685Y0547105D03*
X0484685Y0547105D03*
X0484710Y0582735D03*
X0489710Y0582735D03*
X0494710Y0582735D03*
X0499710Y0582735D03*
X0499710Y0602235D03*
X0494710Y0602235D03*
X0489710Y0602235D03*
X0484710Y0602235D03*
X0484695Y0637855D03*
X0489695Y0637855D03*
X0494695Y0637855D03*
X0499695Y0637855D03*
X0499695Y0657355D03*
X0494695Y0657355D03*
X0489695Y0657355D03*
X0484695Y0657355D03*
X0484705Y0692970D03*
X0489705Y0692970D03*
X0494705Y0692970D03*
X0499705Y0692970D03*
X0499705Y0712470D03*
X0494705Y0712470D03*
X0489705Y0712470D03*
X0484705Y0712470D03*
X0484695Y0748085D03*
X0489695Y0748085D03*
X0494695Y0748085D03*
X0499695Y0748085D03*
X0499695Y0767585D03*
X0494695Y0767585D03*
X0489695Y0767585D03*
X0484695Y0767585D03*
X0484695Y0803210D03*
X0489695Y0803210D03*
X0494695Y0803210D03*
X0499695Y0803210D03*
X0499695Y0822710D03*
X0494695Y0822710D03*
X0489695Y0822710D03*
X0484695Y0822710D03*
X0484690Y0858330D03*
X0489690Y0858330D03*
X0494690Y0858330D03*
X0499690Y0858330D03*
X0499690Y0877830D03*
X0494690Y0877830D03*
X0489690Y0877830D03*
X0484690Y0877830D03*
X0484695Y0913425D03*
X0489695Y0913425D03*
X0494695Y0913425D03*
X0499695Y0913425D03*
X0499695Y0932925D03*
X0494695Y0932925D03*
X0489695Y0932925D03*
X0484695Y0932925D03*
X0539800Y0932930D03*
X0544800Y0932930D03*
X0549800Y0932930D03*
X0554800Y0932930D03*
X0554800Y0913430D03*
X0549800Y0913430D03*
X0544800Y0913430D03*
X0539800Y0913430D03*
X0539805Y0877840D03*
X0544805Y0877840D03*
X0549805Y0877840D03*
X0554805Y0877840D03*
X0554805Y0858340D03*
X0549805Y0858340D03*
X0544805Y0858340D03*
X0539805Y0858340D03*
X0539815Y0822690D03*
X0544815Y0822690D03*
X0549815Y0822690D03*
X0554815Y0822690D03*
X0554815Y0803190D03*
X0549815Y0803190D03*
X0544815Y0803190D03*
X0539815Y0803190D03*
X0539795Y0767580D03*
X0544795Y0767580D03*
X0549795Y0767580D03*
X0554795Y0767580D03*
X0554795Y0748080D03*
X0549795Y0748080D03*
X0544795Y0748080D03*
X0539795Y0748080D03*
X0539815Y0712465D03*
X0544815Y0712465D03*
X0549815Y0712465D03*
X0554815Y0712465D03*
X0554815Y0692965D03*
X0549815Y0692965D03*
X0544815Y0692965D03*
X0539815Y0692965D03*
X0539800Y0657350D03*
X0544800Y0657350D03*
X0549800Y0657350D03*
X0554800Y0657350D03*
X0554800Y0637850D03*
X0549800Y0637850D03*
X0544800Y0637850D03*
X0539800Y0637850D03*
X0539820Y0602250D03*
X0544820Y0602250D03*
X0549820Y0602250D03*
X0554820Y0602250D03*
X0554820Y0582750D03*
X0549820Y0582750D03*
X0544820Y0582750D03*
X0539820Y0582750D03*
X0539795Y0547120D03*
X0544795Y0547120D03*
X0549795Y0547120D03*
X0554795Y0547120D03*
X0554795Y0527620D03*
X0549795Y0527620D03*
X0544795Y0527620D03*
X0539795Y0527620D03*
X0539810Y0492000D03*
X0544810Y0492000D03*
X0549810Y0492000D03*
X0554810Y0492000D03*
X0554810Y0472500D03*
X0549810Y0472500D03*
X0544810Y0472500D03*
X0539810Y0472500D03*
X0539810Y0436885D03*
X0544810Y0436885D03*
X0549810Y0436885D03*
X0554810Y0436885D03*
X0554810Y0417385D03*
X0549810Y0417385D03*
X0544810Y0417385D03*
X0539810Y0417385D03*
X0539840Y0381765D03*
X0544840Y0381765D03*
X0549840Y0381765D03*
X0554840Y0381765D03*
X0554840Y0362265D03*
X0549840Y0362265D03*
X0544840Y0362265D03*
X0539840Y0362265D03*
X0539835Y0326645D03*
X0544835Y0326645D03*
X0549835Y0326645D03*
X0554835Y0326645D03*
X0554835Y0307145D03*
X0549835Y0307145D03*
X0544835Y0307145D03*
X0539835Y0307145D03*
X0539840Y0271530D03*
X0544840Y0271530D03*
X0549840Y0271530D03*
X0554840Y0271530D03*
X0554840Y0252030D03*
X0549840Y0252030D03*
X0544840Y0252030D03*
X0539840Y0252030D03*
X0539865Y0216395D03*
X0544865Y0216395D03*
X0549865Y0216395D03*
X0554865Y0216395D03*
X0554865Y0196895D03*
X0549865Y0196895D03*
X0544865Y0196895D03*
X0539865Y0196895D03*
X0539845Y0161300D03*
X0544845Y0161300D03*
X0549845Y0161300D03*
X0554845Y0161300D03*
X0554845Y0141800D03*
X0549845Y0141800D03*
X0544845Y0141800D03*
X0539845Y0141800D03*
X0539815Y0106170D03*
X0544815Y0106170D03*
X0549815Y0106170D03*
X0554815Y0106170D03*
X0554815Y0086670D03*
X0549815Y0086670D03*
X0544815Y0086670D03*
X0539815Y0086670D03*
D11*
X0039550Y0071385D03*
X0047030Y0071385D03*
X0047010Y0126520D03*
X0039530Y0126520D03*
X0039535Y0181620D03*
X0047015Y0181620D03*
X0047010Y0236725D03*
X0039530Y0236725D03*
X0039530Y0291845D03*
X0047010Y0291845D03*
X0047365Y0346950D03*
X0039885Y0346950D03*
X0039530Y0402070D03*
X0047010Y0402070D03*
X0047010Y0457185D03*
X0039530Y0457185D03*
X0039525Y0512300D03*
X0047005Y0512300D03*
X0047015Y0567430D03*
X0039535Y0567430D03*
X0039530Y0622545D03*
X0047010Y0622545D03*
X0047025Y0677665D03*
X0039545Y0677665D03*
X0039530Y0732775D03*
X0047010Y0732775D03*
X0047010Y0787885D03*
X0039530Y0787885D03*
X0039480Y0842945D03*
X0046960Y0842945D03*
X0046930Y0898125D03*
X0039450Y0898125D03*
X0094620Y0898130D03*
X0102100Y0898130D03*
X0102125Y0843025D03*
X0094645Y0843025D03*
X0094675Y0787905D03*
X0102155Y0787905D03*
X0102100Y0732815D03*
X0094620Y0732815D03*
X0094650Y0677660D03*
X0102130Y0677660D03*
X0102125Y0622545D03*
X0094645Y0622545D03*
X0094635Y0567410D03*
X0102115Y0567410D03*
X0102135Y0512305D03*
X0094655Y0512305D03*
X0094610Y0457175D03*
X0102090Y0457175D03*
X0102125Y0402065D03*
X0094645Y0402065D03*
X0094650Y0346965D03*
X0102130Y0346965D03*
X0102130Y0291840D03*
X0094650Y0291840D03*
X0094680Y0236725D03*
X0102160Y0236725D03*
X0102160Y0181620D03*
X0094680Y0181620D03*
X0094650Y0126440D03*
X0102130Y0126440D03*
X0102140Y0071345D03*
X0094660Y0071345D03*
X0149790Y0071390D03*
X0157270Y0071390D03*
X0157260Y0126510D03*
X0149780Y0126510D03*
X0149775Y0181660D03*
X0157255Y0181660D03*
X0157245Y0236730D03*
X0149765Y0236730D03*
X0149765Y0291840D03*
X0157245Y0291840D03*
X0157250Y0346970D03*
X0149770Y0346970D03*
X0149765Y0402080D03*
X0157245Y0402080D03*
X0157210Y0457175D03*
X0149730Y0457175D03*
X0149760Y0512315D03*
X0157240Y0512315D03*
X0157255Y0567405D03*
X0149775Y0567405D03*
X0149775Y0622525D03*
X0157255Y0622525D03*
X0157240Y0677660D03*
X0149760Y0677660D03*
X0149745Y0732755D03*
X0157225Y0732755D03*
X0157230Y0787910D03*
X0149750Y0787910D03*
X0149765Y0843010D03*
X0157245Y0843010D03*
X0157255Y0898145D03*
X0149775Y0898145D03*
X0204880Y0898155D03*
X0212360Y0898155D03*
X0212375Y0843015D03*
X0204895Y0843015D03*
X0204890Y0787915D03*
X0212370Y0787915D03*
X0212345Y0732780D03*
X0204865Y0732780D03*
X0204890Y0677670D03*
X0212370Y0677670D03*
X0212365Y0622530D03*
X0204885Y0622530D03*
X0204890Y0567435D03*
X0212370Y0567435D03*
X0212335Y0512280D03*
X0204855Y0512280D03*
X0204890Y0457190D03*
X0212370Y0457190D03*
X0212350Y0402080D03*
X0204870Y0402080D03*
X0205040Y0346950D03*
X0212520Y0346950D03*
X0212520Y0291845D03*
X0205040Y0291845D03*
X0205035Y0236730D03*
X0212515Y0236730D03*
X0212520Y0181570D03*
X0205040Y0181570D03*
X0205065Y0126450D03*
X0212545Y0126450D03*
X0212515Y0071350D03*
X0205035Y0071350D03*
X0259905Y0071360D03*
X0267385Y0071360D03*
X0267375Y0126530D03*
X0259895Y0126530D03*
X0259890Y0181605D03*
X0267370Y0181605D03*
X0267375Y0236730D03*
X0259895Y0236730D03*
X0259885Y0291845D03*
X0267365Y0291845D03*
X0267375Y0346975D03*
X0259895Y0346975D03*
X0259990Y0402075D03*
X0267470Y0402075D03*
X0267470Y0457190D03*
X0259990Y0457190D03*
X0260000Y0512305D03*
X0267480Y0512305D03*
X0267510Y0567420D03*
X0260030Y0567420D03*
X0260020Y0622550D03*
X0267500Y0622550D03*
X0267515Y0677655D03*
X0260035Y0677655D03*
X0260010Y0732785D03*
X0267490Y0732785D03*
X0267485Y0787905D03*
X0260005Y0787905D03*
X0259990Y0843010D03*
X0267470Y0843010D03*
X0267480Y0898145D03*
X0260000Y0898145D03*
X0315150Y0898110D03*
X0322630Y0898110D03*
X0322570Y0843030D03*
X0315090Y0843030D03*
X0315095Y0787910D03*
X0322575Y0787910D03*
X0322605Y0732790D03*
X0315125Y0732790D03*
X0315130Y0677665D03*
X0322610Y0677665D03*
X0322640Y0622545D03*
X0315160Y0622545D03*
X0315120Y0567435D03*
X0322600Y0567435D03*
X0322600Y0512305D03*
X0315120Y0512305D03*
X0315120Y0457195D03*
X0322600Y0457195D03*
X0322590Y0402055D03*
X0315110Y0402055D03*
X0315130Y0346970D03*
X0322610Y0346970D03*
X0322610Y0291845D03*
X0315130Y0291845D03*
X0315125Y0236730D03*
X0322605Y0236730D03*
X0322610Y0181590D03*
X0315130Y0181590D03*
X0315115Y0126490D03*
X0322595Y0126490D03*
X0322625Y0071360D03*
X0315145Y0071360D03*
X0370260Y0071360D03*
X0377740Y0071360D03*
X0377715Y0126470D03*
X0370235Y0126470D03*
X0370240Y0181610D03*
X0377720Y0181610D03*
X0377730Y0236730D03*
X0370250Y0236730D03*
X0370235Y0291845D03*
X0377715Y0291845D03*
X0377715Y0346965D03*
X0370235Y0346965D03*
X0370175Y0402085D03*
X0377655Y0402085D03*
X0377755Y0457200D03*
X0370275Y0457200D03*
X0370195Y0512295D03*
X0377675Y0512295D03*
X0377720Y0567430D03*
X0370240Y0567430D03*
X0370250Y0622540D03*
X0377730Y0622540D03*
X0377730Y0677670D03*
X0370250Y0677670D03*
X0370230Y0732795D03*
X0377710Y0732795D03*
X0377720Y0787895D03*
X0370240Y0787895D03*
X0370270Y0843025D03*
X0377750Y0843025D03*
X0377725Y0898140D03*
X0370245Y0898140D03*
X0425365Y0898120D03*
X0432845Y0898120D03*
X0432865Y0843020D03*
X0425385Y0843020D03*
X0425325Y0787915D03*
X0432805Y0787915D03*
X0432840Y0732800D03*
X0425360Y0732800D03*
X0425400Y0677660D03*
X0432880Y0677660D03*
X0432870Y0622545D03*
X0425390Y0622545D03*
X0425365Y0567435D03*
X0432845Y0567435D03*
X0432840Y0512300D03*
X0425360Y0512300D03*
X0425355Y0457220D03*
X0432835Y0457220D03*
X0432870Y0402070D03*
X0425390Y0402070D03*
X0425570Y0346965D03*
X0433050Y0346965D03*
X0433045Y0291850D03*
X0425565Y0291850D03*
X0425560Y0236730D03*
X0433040Y0236730D03*
X0433060Y0181610D03*
X0425580Y0181610D03*
X0425545Y0126505D03*
X0433025Y0126505D03*
X0433045Y0071385D03*
X0425565Y0071385D03*
X0480315Y0071340D03*
X0487795Y0071340D03*
X0487820Y0126500D03*
X0480340Y0126500D03*
X0480350Y0181600D03*
X0487830Y0181600D03*
X0487795Y0236730D03*
X0480315Y0236730D03*
X0480335Y0291840D03*
X0487815Y0291840D03*
X0487820Y0346970D03*
X0480340Y0346970D03*
X0480475Y0402080D03*
X0487955Y0402080D03*
X0487965Y0457175D03*
X0480485Y0457175D03*
X0480470Y0512305D03*
X0487950Y0512305D03*
X0487975Y0567435D03*
X0480495Y0567435D03*
X0480480Y0622555D03*
X0487960Y0622555D03*
X0487970Y0677670D03*
X0480490Y0677670D03*
X0480480Y0732785D03*
X0487960Y0732785D03*
X0487960Y0787910D03*
X0480480Y0787910D03*
X0480475Y0843030D03*
X0487955Y0843030D03*
X0487960Y0898125D03*
X0480480Y0898125D03*
X0535585Y0898130D03*
X0543065Y0898130D03*
X0543070Y0843040D03*
X0535590Y0843040D03*
X0535600Y0787890D03*
X0543080Y0787890D03*
X0543060Y0732780D03*
X0535580Y0732780D03*
X0535600Y0677665D03*
X0543080Y0677665D03*
X0543065Y0622550D03*
X0535585Y0622550D03*
X0535605Y0567450D03*
X0543085Y0567450D03*
X0543060Y0512320D03*
X0535580Y0512320D03*
X0535595Y0457200D03*
X0543075Y0457200D03*
X0543075Y0402085D03*
X0535595Y0402085D03*
X0535625Y0346965D03*
X0543105Y0346965D03*
X0543100Y0291845D03*
X0535620Y0291845D03*
X0535625Y0236730D03*
X0543105Y0236730D03*
X0543130Y0181595D03*
X0535650Y0181595D03*
X0535630Y0126500D03*
X0543110Y0126500D03*
X0543080Y0071370D03*
X0535600Y0071370D03*
D12*
X0555525Y0068700D03*
X0555525Y0076180D03*
X0555555Y0123830D03*
X0555555Y0131310D03*
X0555575Y0178925D03*
X0555575Y0186405D03*
X0555550Y0234060D03*
X0555550Y0241540D03*
X0555545Y0289175D03*
X0555545Y0296655D03*
X0555550Y0344295D03*
X0555550Y0351775D03*
X0555520Y0399415D03*
X0555520Y0406895D03*
X0555520Y0454530D03*
X0555520Y0462010D03*
X0555505Y0509650D03*
X0555505Y0517130D03*
X0555530Y0564780D03*
X0555530Y0572260D03*
X0555510Y0619880D03*
X0555510Y0627360D03*
X0555525Y0674995D03*
X0555525Y0682475D03*
X0555505Y0730110D03*
X0555505Y0737590D03*
X0555525Y0785220D03*
X0555525Y0792700D03*
X0555515Y0840370D03*
X0555515Y0847850D03*
X0555510Y0895460D03*
X0555510Y0902940D03*
X0500405Y0902935D03*
X0500405Y0895455D03*
X0500400Y0847840D03*
X0500400Y0840360D03*
X0500405Y0792720D03*
X0500405Y0785240D03*
X0500405Y0737595D03*
X0500405Y0730115D03*
X0466940Y0743845D03*
X0466940Y0751325D03*
X0445285Y0737610D03*
X0445285Y0730130D03*
X0455135Y0720000D03*
X0455135Y0712520D03*
X0445325Y0682470D03*
X0445325Y0674990D03*
X0445315Y0627355D03*
X0445315Y0619875D03*
X0445290Y0572245D03*
X0445290Y0564765D03*
X0445285Y0517110D03*
X0445285Y0509630D03*
X0455410Y0500895D03*
X0455410Y0493415D03*
X0445280Y0462030D03*
X0445280Y0454550D03*
X0445315Y0406880D03*
X0445315Y0399400D03*
X0445495Y0351775D03*
X0445495Y0344295D03*
X0445490Y0296660D03*
X0445490Y0289180D03*
X0455375Y0279155D03*
X0455375Y0271675D03*
X0445485Y0241540D03*
X0445485Y0234060D03*
X0445505Y0186420D03*
X0445505Y0178940D03*
X0445470Y0131315D03*
X0445470Y0123835D03*
X0445490Y0076195D03*
X0445490Y0068715D03*
X0500240Y0068670D03*
X0500240Y0076150D03*
X0500265Y0123830D03*
X0500265Y0131310D03*
X0500275Y0178930D03*
X0500275Y0186410D03*
X0500240Y0234060D03*
X0500240Y0241540D03*
X0500260Y0289170D03*
X0500260Y0296650D03*
X0500265Y0344300D03*
X0500265Y0351780D03*
X0500400Y0399410D03*
X0500400Y0406890D03*
X0500410Y0454505D03*
X0500410Y0461985D03*
X0500395Y0509635D03*
X0500395Y0517115D03*
X0500420Y0564765D03*
X0500420Y0572245D03*
X0500405Y0619885D03*
X0500405Y0627365D03*
X0500415Y0675000D03*
X0500415Y0682480D03*
X0445250Y0785245D03*
X0445250Y0792725D03*
X0445310Y0840350D03*
X0445310Y0847830D03*
X0445290Y0895450D03*
X0445290Y0902930D03*
X0401400Y0968065D03*
X0401400Y0975545D03*
X0391810Y0975470D03*
X0391810Y0967990D03*
X0390170Y0902950D03*
X0390170Y0895470D03*
X0390195Y0847835D03*
X0390195Y0840355D03*
X0390165Y0792705D03*
X0390165Y0785225D03*
X0390155Y0737605D03*
X0390155Y0730125D03*
X0390175Y0682480D03*
X0390175Y0675000D03*
X0390175Y0627350D03*
X0390175Y0619870D03*
X0390165Y0572240D03*
X0390165Y0564760D03*
X0390120Y0517105D03*
X0390120Y0509625D03*
X0390200Y0462010D03*
X0390200Y0454530D03*
X0390100Y0406895D03*
X0390100Y0399415D03*
X0390160Y0351775D03*
X0390160Y0344295D03*
X0390160Y0296655D03*
X0390160Y0289175D03*
X0390175Y0241540D03*
X0390175Y0234060D03*
X0390165Y0186420D03*
X0390165Y0178940D03*
X0390160Y0131280D03*
X0390160Y0123800D03*
X0390185Y0076170D03*
X0390185Y0068690D03*
X0335070Y0068690D03*
X0335070Y0076170D03*
X0335040Y0123820D03*
X0335040Y0131300D03*
X0335055Y0178920D03*
X0335055Y0186400D03*
X0335050Y0234060D03*
X0335050Y0241540D03*
X0335055Y0289175D03*
X0335055Y0296655D03*
X0335055Y0344300D03*
X0335055Y0351780D03*
X0335035Y0399385D03*
X0335035Y0406865D03*
X0335045Y0454525D03*
X0335045Y0462005D03*
X0335045Y0509635D03*
X0335045Y0517115D03*
X0335045Y0564765D03*
X0335045Y0572245D03*
X0335085Y0619875D03*
X0335085Y0627355D03*
X0335055Y0674995D03*
X0335055Y0682475D03*
X0335050Y0730120D03*
X0335050Y0737600D03*
X0335020Y0785240D03*
X0335020Y0792720D03*
X0335015Y0840360D03*
X0335015Y0847840D03*
X0335075Y0895440D03*
X0335075Y0902920D03*
X0279925Y0902955D03*
X0279925Y0895475D03*
X0279915Y0847820D03*
X0279915Y0840340D03*
X0279930Y0792715D03*
X0279930Y0785235D03*
X0279935Y0737595D03*
X0279935Y0730115D03*
X0289465Y0721175D03*
X0289465Y0713695D03*
X0279960Y0682465D03*
X0279960Y0674985D03*
X0279945Y0627360D03*
X0279945Y0619880D03*
X0279955Y0572230D03*
X0279955Y0564750D03*
X0279925Y0517115D03*
X0279925Y0509635D03*
X0290105Y0497150D03*
X0290105Y0489670D03*
X0279915Y0462000D03*
X0279915Y0454520D03*
X0279915Y0406885D03*
X0279915Y0399405D03*
X0279820Y0351785D03*
X0279820Y0344305D03*
X0279810Y0296655D03*
X0279810Y0289175D03*
X0289670Y0279790D03*
X0289670Y0272310D03*
X0279820Y0241540D03*
X0279820Y0234060D03*
X0279815Y0186415D03*
X0279815Y0178935D03*
X0279820Y0131340D03*
X0279820Y0123860D03*
X0279830Y0076170D03*
X0279830Y0068690D03*
X0224960Y0068680D03*
X0224960Y0076160D03*
X0224990Y0123780D03*
X0224990Y0131260D03*
X0224965Y0178900D03*
X0224965Y0186380D03*
X0224960Y0234060D03*
X0224960Y0241540D03*
X0224965Y0289175D03*
X0224965Y0296655D03*
X0224965Y0344280D03*
X0224965Y0351760D03*
X0224795Y0399410D03*
X0224795Y0406890D03*
X0224815Y0454520D03*
X0224815Y0462000D03*
X0224780Y0509610D03*
X0224780Y0517090D03*
X0224815Y0564765D03*
X0224815Y0572245D03*
X0224810Y0619860D03*
X0224810Y0627340D03*
X0224815Y0675000D03*
X0224815Y0682480D03*
X0224790Y0730110D03*
X0224790Y0737590D03*
X0224815Y0785245D03*
X0224815Y0792725D03*
X0224820Y0840345D03*
X0224820Y0847825D03*
X0224805Y0895485D03*
X0224805Y0902965D03*
X0172420Y0959995D03*
X0172420Y0967475D03*
X0162790Y0967310D03*
X0162790Y0959830D03*
X0169700Y0902955D03*
X0169700Y0895475D03*
X0169690Y0847820D03*
X0169690Y0840340D03*
X0169675Y0792720D03*
X0169675Y0785240D03*
X0169670Y0737565D03*
X0169670Y0730085D03*
X0169685Y0682470D03*
X0169685Y0674990D03*
X0169700Y0627335D03*
X0169700Y0619855D03*
X0169700Y0572215D03*
X0169700Y0564735D03*
X0169685Y0517125D03*
X0169685Y0509645D03*
X0169655Y0461985D03*
X0169655Y0454505D03*
X0169690Y0406890D03*
X0169690Y0399410D03*
X0169695Y0351780D03*
X0169695Y0344300D03*
X0169690Y0296650D03*
X0169690Y0289170D03*
X0169690Y0241540D03*
X0169690Y0234060D03*
X0169700Y0186470D03*
X0169700Y0178990D03*
X0169705Y0131320D03*
X0169705Y0123840D03*
X0169715Y0076200D03*
X0169715Y0068720D03*
X0114585Y0068675D03*
X0114585Y0076155D03*
X0114575Y0123770D03*
X0114575Y0131250D03*
X0114605Y0178950D03*
X0114605Y0186430D03*
X0114605Y0234055D03*
X0114605Y0241535D03*
X0124550Y0271260D03*
X0124550Y0278740D03*
X0114575Y0289170D03*
X0114575Y0296650D03*
X0114575Y0344295D03*
X0114575Y0351775D03*
X0114570Y0399395D03*
X0114570Y0406875D03*
X0114535Y0454505D03*
X0114535Y0461985D03*
X0124165Y0491175D03*
X0124165Y0498655D03*
X0114580Y0509635D03*
X0114580Y0517115D03*
X0114560Y0564740D03*
X0114560Y0572220D03*
X0114570Y0619875D03*
X0114570Y0627355D03*
X0114575Y0674990D03*
X0114575Y0682470D03*
X0124185Y0711980D03*
X0124185Y0719460D03*
X0114545Y0730145D03*
X0114545Y0737625D03*
X0114600Y0785235D03*
X0114600Y0792715D03*
X0114570Y0840355D03*
X0114570Y0847835D03*
X0114545Y0895460D03*
X0114545Y0902940D03*
X0059375Y0902935D03*
X0059375Y0895455D03*
X0059405Y0847755D03*
X0059405Y0840275D03*
X0059455Y0792695D03*
X0059455Y0785215D03*
X0059455Y0737585D03*
X0059455Y0730105D03*
X0059470Y0682475D03*
X0059470Y0674995D03*
X0059455Y0627355D03*
X0059455Y0619875D03*
X0059460Y0572240D03*
X0059460Y0564760D03*
X0059450Y0517110D03*
X0059450Y0509630D03*
X0059455Y0461995D03*
X0059455Y0454515D03*
X0059455Y0406880D03*
X0059455Y0399400D03*
X0059810Y0351760D03*
X0059810Y0344280D03*
X0059455Y0296655D03*
X0059455Y0289175D03*
X0059455Y0241535D03*
X0059455Y0234055D03*
X0059460Y0186430D03*
X0059460Y0178950D03*
X0059455Y0131330D03*
X0059455Y0123850D03*
X0059475Y0076195D03*
X0059475Y0068715D03*
D13*
X0240901Y0941103D03*
X0243460Y0941103D03*
X0246020Y0941103D03*
X0248579Y0941103D03*
X0248579Y0957717D03*
X0246020Y0957717D03*
X0243460Y0957717D03*
X0240901Y0957717D03*
X0461026Y0954927D03*
X0463585Y0954927D03*
X0466145Y0954927D03*
X0468704Y0954927D03*
X0468704Y0938313D03*
X0466145Y0938313D03*
X0463585Y0938313D03*
X0461026Y0938313D03*
D14*
X0314140Y0964450D02*
X0308088Y0964450D01*
X0308088Y0965660D01*
X0314140Y0965660D01*
X0314140Y0964450D01*
X0314140Y0964853D02*
X0308088Y0964853D01*
X0308088Y0965256D02*
X0314140Y0965256D01*
X0314140Y0965659D02*
X0308088Y0965659D01*
X0308088Y0966950D02*
X0314140Y0966950D01*
X0308088Y0966950D02*
X0308088Y0968160D01*
X0314140Y0968160D01*
X0314140Y0966950D01*
X0314140Y0967353D02*
X0308088Y0967353D01*
X0308088Y0967756D02*
X0314140Y0967756D01*
X0314140Y0968159D02*
X0308088Y0968159D01*
X0308088Y0969450D02*
X0314140Y0969450D01*
X0308088Y0969450D02*
X0308088Y0970660D01*
X0314140Y0970660D01*
X0314140Y0969450D01*
X0314140Y0969853D02*
X0308088Y0969853D01*
X0308088Y0970256D02*
X0314140Y0970256D01*
X0314140Y0970659D02*
X0308088Y0970659D01*
X0308088Y0971950D02*
X0314140Y0971950D01*
X0308088Y0971950D02*
X0308088Y0973160D01*
X0314140Y0973160D01*
X0314140Y0971950D01*
X0314140Y0972353D02*
X0308088Y0972353D01*
X0308088Y0972756D02*
X0314140Y0972756D01*
X0314140Y0973159D02*
X0308088Y0973159D01*
X0308088Y0974450D02*
X0314140Y0974450D01*
X0308088Y0974450D02*
X0308088Y0975660D01*
X0314140Y0975660D01*
X0314140Y0974450D01*
X0314140Y0974853D02*
X0308088Y0974853D01*
X0308088Y0975256D02*
X0314140Y0975256D01*
X0314140Y0975659D02*
X0308088Y0975659D01*
X0308088Y0976950D02*
X0314140Y0976950D01*
X0308088Y0976950D02*
X0308088Y0978160D01*
X0314140Y0978160D01*
X0314140Y0976950D01*
X0314140Y0977353D02*
X0308088Y0977353D01*
X0308088Y0977756D02*
X0314140Y0977756D01*
X0314140Y0978159D02*
X0308088Y0978159D01*
X0308088Y0979450D02*
X0314140Y0979450D01*
X0308088Y0979450D02*
X0308088Y0980660D01*
X0314140Y0980660D01*
X0314140Y0979450D01*
X0314140Y0979853D02*
X0308088Y0979853D01*
X0308088Y0980256D02*
X0314140Y0980256D01*
X0314140Y0980659D02*
X0308088Y0980659D01*
X0308088Y0981950D02*
X0314140Y0981950D01*
X0308088Y0981950D02*
X0308088Y0983160D01*
X0314140Y0983160D01*
X0314140Y0981950D01*
X0314140Y0982353D02*
X0308088Y0982353D01*
X0308088Y0982756D02*
X0314140Y0982756D01*
X0314140Y0983159D02*
X0308088Y0983159D01*
X0293392Y0981950D02*
X0287340Y0981950D01*
X0287340Y0983160D01*
X0293392Y0983160D01*
X0293392Y0981950D01*
X0293392Y0982353D02*
X0287340Y0982353D01*
X0287340Y0982756D02*
X0293392Y0982756D01*
X0293392Y0983159D02*
X0287340Y0983159D01*
X0287340Y0979450D02*
X0293392Y0979450D01*
X0287340Y0979450D02*
X0287340Y0980660D01*
X0293392Y0980660D01*
X0293392Y0979450D01*
X0293392Y0979853D02*
X0287340Y0979853D01*
X0287340Y0980256D02*
X0293392Y0980256D01*
X0293392Y0980659D02*
X0287340Y0980659D01*
X0287340Y0976950D02*
X0293392Y0976950D01*
X0287340Y0976950D02*
X0287340Y0978160D01*
X0293392Y0978160D01*
X0293392Y0976950D01*
X0293392Y0977353D02*
X0287340Y0977353D01*
X0287340Y0977756D02*
X0293392Y0977756D01*
X0293392Y0978159D02*
X0287340Y0978159D01*
X0287340Y0974450D02*
X0293392Y0974450D01*
X0287340Y0974450D02*
X0287340Y0975660D01*
X0293392Y0975660D01*
X0293392Y0974450D01*
X0293392Y0974853D02*
X0287340Y0974853D01*
X0287340Y0975256D02*
X0293392Y0975256D01*
X0293392Y0975659D02*
X0287340Y0975659D01*
X0287340Y0971950D02*
X0293392Y0971950D01*
X0287340Y0971950D02*
X0287340Y0973160D01*
X0293392Y0973160D01*
X0293392Y0971950D01*
X0293392Y0972353D02*
X0287340Y0972353D01*
X0287340Y0972756D02*
X0293392Y0972756D01*
X0293392Y0973159D02*
X0287340Y0973159D01*
X0287340Y0969450D02*
X0293392Y0969450D01*
X0287340Y0969450D02*
X0287340Y0970660D01*
X0293392Y0970660D01*
X0293392Y0969450D01*
X0293392Y0969853D02*
X0287340Y0969853D01*
X0287340Y0970256D02*
X0293392Y0970256D01*
X0293392Y0970659D02*
X0287340Y0970659D01*
X0287340Y0966950D02*
X0293392Y0966950D01*
X0287340Y0966950D02*
X0287340Y0968160D01*
X0293392Y0968160D01*
X0293392Y0966950D01*
X0293392Y0967353D02*
X0287340Y0967353D01*
X0287340Y0967756D02*
X0293392Y0967756D01*
X0293392Y0968159D02*
X0287340Y0968159D01*
X0287340Y0964450D02*
X0293392Y0964450D01*
X0287340Y0964450D02*
X0287340Y0965660D01*
X0293392Y0965660D01*
X0293392Y0964450D01*
X0293392Y0964853D02*
X0287340Y0964853D01*
X0287340Y0965256D02*
X0293392Y0965256D01*
X0293392Y0965659D02*
X0287340Y0965659D01*
D15*
X0136720Y0964985D03*
X0136720Y0970985D03*
X0136720Y0976985D03*
X0136710Y0954965D03*
X0136710Y0948965D03*
X0136710Y0942965D03*
D16*
X0183425Y0825240D03*
X0190905Y0825240D03*
X0240915Y0825520D03*
X0248395Y0825520D03*
X0189760Y0620215D03*
X0182280Y0620215D03*
X0182115Y0606390D03*
X0189595Y0606390D03*
X0186835Y0399995D03*
X0194315Y0399995D03*
X0402750Y0399360D03*
X0410230Y0399360D03*
X0411655Y0620025D03*
X0404175Y0620025D03*
X0462225Y0761540D03*
X0469705Y0761540D03*
X0468990Y0825960D03*
X0461510Y0825960D03*
X0415010Y0825525D03*
X0407530Y0825525D03*
D17*
X0412470Y0967830D03*
X0412470Y0976830D03*
X0412470Y0985830D03*
X0183655Y0977470D03*
X0183655Y0968470D03*
X0183655Y0959470D03*
D18*
X0208455Y0968370D03*
X0437270Y0976730D03*
D19*
X0518703Y0927742D02*
X0518703Y0924198D01*
X0518703Y0927742D02*
X0524687Y0927742D01*
X0524687Y0924198D01*
X0518703Y0924198D01*
X0518703Y0925378D02*
X0524687Y0925378D01*
X0524687Y0926558D02*
X0518703Y0926558D01*
X0518703Y0927738D02*
X0524687Y0927738D01*
X0518703Y0915892D02*
X0518703Y0912348D01*
X0518703Y0915892D02*
X0524687Y0915892D01*
X0524687Y0912348D01*
X0518703Y0912348D01*
X0518703Y0913528D02*
X0524687Y0913528D01*
X0524687Y0914708D02*
X0518703Y0914708D01*
X0518703Y0915888D02*
X0524687Y0915888D01*
X0078083Y0917302D02*
X0078083Y0913758D01*
X0078083Y0917302D02*
X0084067Y0917302D01*
X0084067Y0913758D01*
X0078083Y0913758D01*
X0078083Y0914938D02*
X0084067Y0914938D01*
X0084067Y0916118D02*
X0078083Y0916118D01*
X0078083Y0917298D02*
X0084067Y0917298D01*
X0078083Y0925608D02*
X0078083Y0929152D01*
X0084067Y0929152D01*
X0084067Y0925608D01*
X0078083Y0925608D01*
X0078083Y0926788D02*
X0084067Y0926788D01*
X0084067Y0927968D02*
X0078083Y0927968D01*
X0078083Y0929148D02*
X0084067Y0929148D01*
M02*
