G75*
%MOIN*%
%OFA0B0*%
%FSLAX25Y25*%
%IPPOS*%
%LPD*%
%AMOC8*
5,1,8,0,0,1.08239X$1,22.5*
%
%ADD10R,0.01969X0.01969*%
%ADD11R,0.00984X0.04921*%
%ADD12R,0.06496X0.08071*%
%ADD13R,0.05118X0.05906*%
%ADD14R,0.06300X0.04600*%
%ADD15C,0.00344*%
%ADD16R,0.02756X0.06299*%
D10*
X0187341Y0378574D03*
X0190490Y0378574D03*
X0193640Y0378574D03*
X0193640Y0381723D03*
X0193640Y0384873D03*
X0193640Y0388023D03*
X0193640Y0391172D03*
X0190490Y0391172D03*
X0187341Y0391172D03*
X0187341Y0388023D03*
X0187341Y0384873D03*
X0187341Y0381723D03*
X0187341Y0599046D03*
X0190490Y0599046D03*
X0193640Y0599046D03*
X0193640Y0602196D03*
X0193640Y0605345D03*
X0193640Y0608495D03*
X0193640Y0611645D03*
X0190490Y0611645D03*
X0187341Y0611645D03*
X0187341Y0608495D03*
X0187341Y0605345D03*
X0187341Y0602196D03*
X0407813Y0602196D03*
X0407813Y0605345D03*
X0407813Y0608495D03*
X0407813Y0611645D03*
X0410963Y0611645D03*
X0414112Y0611645D03*
X0414112Y0608495D03*
X0414112Y0605345D03*
X0414112Y0602196D03*
X0414112Y0599046D03*
X0410963Y0599046D03*
X0407813Y0599046D03*
X0407813Y0391172D03*
X0407813Y0388023D03*
X0407813Y0384873D03*
X0407813Y0381723D03*
X0407813Y0378574D03*
X0410963Y0378574D03*
X0414112Y0378574D03*
X0414112Y0381723D03*
X0414112Y0384873D03*
X0414112Y0388023D03*
X0414112Y0391172D03*
X0410963Y0391172D03*
D11*
X0411872Y0969857D03*
X0413840Y0969857D03*
X0415809Y0969857D03*
X0417777Y0969857D03*
X0419746Y0969857D03*
X0421714Y0969857D03*
X0423683Y0969857D03*
X0425652Y0969857D03*
X0427620Y0969857D03*
X0429589Y0969857D03*
X0431557Y0969857D03*
X0433526Y0969857D03*
X0435494Y0969857D03*
X0437463Y0969857D03*
X0439431Y0969857D03*
X0441400Y0969857D03*
X0443368Y0969857D03*
X0445337Y0969857D03*
X0409903Y0969857D03*
X0407935Y0969857D03*
X0405966Y0969857D03*
X0403998Y0969857D03*
X0402029Y0969857D03*
X0400061Y0969857D03*
X0398092Y0969857D03*
X0396124Y0969857D03*
X0394155Y0969857D03*
X0392187Y0969857D03*
X0390218Y0969857D03*
X0388250Y0969857D03*
X0386281Y0969857D03*
X0384313Y0969857D03*
X0382344Y0969857D03*
X0380376Y0969857D03*
X0378407Y0969857D03*
X0376439Y0969857D03*
X0335100Y0969857D03*
X0333132Y0969857D03*
X0331163Y0969857D03*
X0329195Y0969857D03*
X0327226Y0969857D03*
X0325258Y0969857D03*
X0323289Y0969857D03*
X0321321Y0969857D03*
X0319352Y0969857D03*
X0317384Y0969857D03*
X0315415Y0969857D03*
X0313447Y0969857D03*
X0311478Y0969857D03*
X0309510Y0969857D03*
X0307541Y0969857D03*
X0305573Y0969857D03*
X0303604Y0969857D03*
X0301636Y0969857D03*
X0299667Y0969857D03*
X0297699Y0969857D03*
X0295730Y0969857D03*
X0293762Y0969857D03*
X0291793Y0969857D03*
X0289825Y0969857D03*
X0287856Y0969857D03*
X0285888Y0969857D03*
X0283919Y0969857D03*
X0281951Y0969857D03*
X0279982Y0969857D03*
X0278014Y0969857D03*
X0276045Y0969857D03*
X0274077Y0969857D03*
X0272108Y0969857D03*
X0270140Y0969857D03*
X0268171Y0969857D03*
X0266203Y0969857D03*
X0224864Y0969857D03*
X0222896Y0969857D03*
X0220927Y0969857D03*
X0218959Y0969857D03*
X0216990Y0969857D03*
X0215022Y0969857D03*
X0213053Y0969857D03*
X0211085Y0969857D03*
X0209116Y0969857D03*
X0207148Y0969857D03*
X0205179Y0969857D03*
X0203211Y0969857D03*
X0201242Y0969857D03*
X0199274Y0969857D03*
X0197305Y0969857D03*
X0195337Y0969857D03*
X0193368Y0969857D03*
X0191400Y0969857D03*
X0189431Y0969857D03*
X0187463Y0969857D03*
X0185494Y0969857D03*
X0183526Y0969857D03*
X0181557Y0969857D03*
X0179589Y0969857D03*
X0177620Y0969857D03*
X0175652Y0969857D03*
X0173683Y0969857D03*
X0171714Y0969857D03*
X0169746Y0969857D03*
X0167777Y0969857D03*
X0165809Y0969857D03*
X0163840Y0969857D03*
X0161872Y0969857D03*
X0159903Y0969857D03*
X0157935Y0969857D03*
X0155966Y0969857D03*
X0114628Y0969857D03*
X0112659Y0969857D03*
X0110691Y0969857D03*
X0108722Y0969857D03*
X0106754Y0969857D03*
X0104785Y0969857D03*
X0102817Y0969857D03*
X0100848Y0969857D03*
X0098880Y0969857D03*
X0096911Y0969857D03*
X0094943Y0969857D03*
X0092974Y0969857D03*
X0091006Y0969857D03*
X0089037Y0969857D03*
X0087069Y0969857D03*
X0085100Y0969857D03*
X0083132Y0969857D03*
X0081163Y0969857D03*
X0079195Y0969857D03*
X0077226Y0969857D03*
X0075258Y0969857D03*
X0073289Y0969857D03*
X0071321Y0969857D03*
X0069352Y0969857D03*
X0067384Y0969857D03*
X0065415Y0969857D03*
X0063447Y0969857D03*
X0061478Y0969857D03*
X0059510Y0969857D03*
X0057541Y0969857D03*
X0055573Y0969857D03*
X0053604Y0969857D03*
X0051636Y0969857D03*
X0049667Y0969857D03*
X0047699Y0969857D03*
X0045730Y0969857D03*
X0486675Y0969857D03*
X0488644Y0969857D03*
X0490612Y0969857D03*
X0492581Y0969857D03*
X0494549Y0969857D03*
X0496518Y0969857D03*
X0498486Y0969857D03*
X0500455Y0969857D03*
X0502423Y0969857D03*
X0504392Y0969857D03*
X0506360Y0969857D03*
X0508329Y0969857D03*
X0510297Y0969857D03*
X0512266Y0969857D03*
X0514234Y0969857D03*
X0516203Y0969857D03*
X0518171Y0969857D03*
X0520140Y0969857D03*
X0522108Y0969857D03*
X0524077Y0969857D03*
X0526045Y0969857D03*
X0528014Y0969857D03*
X0529982Y0969857D03*
X0531951Y0969857D03*
X0533919Y0969857D03*
X0535888Y0969857D03*
X0537856Y0969857D03*
X0539825Y0969857D03*
X0541793Y0969857D03*
X0543762Y0969857D03*
X0545730Y0969857D03*
X0547699Y0969857D03*
X0549667Y0969857D03*
X0551636Y0969857D03*
X0553604Y0969857D03*
X0555573Y0969857D03*
D12*
X0563053Y0982652D03*
X0479195Y0982652D03*
X0452817Y0982652D03*
X0368959Y0982652D03*
X0342581Y0982652D03*
X0258722Y0982652D03*
X0232344Y0982652D03*
X0148486Y0982652D03*
X0122108Y0982652D03*
X0038250Y0982652D03*
D13*
X0183220Y0825245D03*
X0190700Y0825245D03*
X0240915Y0825540D03*
X0248395Y0825540D03*
X0407565Y0825760D03*
X0415045Y0825760D03*
X0461660Y0825775D03*
X0469140Y0825775D03*
D14*
X0463020Y0960780D03*
X0463020Y0966780D03*
X0243715Y0955605D03*
X0243715Y0949605D03*
D15*
X0460667Y0775154D02*
X0463275Y0775154D01*
X0463275Y0774120D01*
X0460667Y0774120D01*
X0460667Y0775154D01*
X0460667Y0774463D02*
X0463275Y0774463D01*
X0463275Y0774806D02*
X0460667Y0774806D01*
X0460667Y0775149D02*
X0463275Y0775149D01*
X0463275Y0771217D02*
X0460667Y0771217D01*
X0463275Y0771217D02*
X0463275Y0770183D01*
X0460667Y0770183D01*
X0460667Y0771217D01*
X0460667Y0770526D02*
X0463275Y0770526D01*
X0463275Y0770869D02*
X0460667Y0770869D01*
X0460667Y0771212D02*
X0463275Y0771212D01*
X0468305Y0771217D02*
X0470913Y0771217D01*
X0470913Y0770183D01*
X0468305Y0770183D01*
X0468305Y0771217D01*
X0468305Y0770526D02*
X0470913Y0770526D01*
X0470913Y0770869D02*
X0468305Y0770869D01*
X0468305Y0771212D02*
X0470913Y0771212D01*
X0470913Y0775154D02*
X0468305Y0775154D01*
X0470913Y0775154D02*
X0470913Y0774120D01*
X0468305Y0774120D01*
X0468305Y0775154D01*
X0468305Y0774463D02*
X0470913Y0774463D01*
X0470913Y0774806D02*
X0468305Y0774806D01*
X0468305Y0775149D02*
X0470913Y0775149D01*
D16*
X0465790Y0772668D03*
M02*
