%
M48
M72
T01C0.0079
T02C0.0118
T03C0.0236
T04C0.0276
T05C0.0320
T06C0.0413
T07C0.0472
T08C0.2165
T09C0.2362
%
T01
X5030Y6403
X4254Y11871
X4217Y17365
X4255Y22868
X4247Y28430
X4135Y34047
T02
X2975Y7457
X2968Y13365
X2968Y18912
X2968Y24405
X2968Y29789
X2968Y35390
X3963Y39329
X2968Y40883
X3941Y44861
X2968Y46445
X4299Y50336
X2968Y51806
X4033Y55950
X2968Y57569
X3548Y61495
X2968Y63042
X4019Y67012
X2968Y68567
X3633Y72500
X2968Y74014
X3874Y78009
X2968Y79524
X3889Y83540
X2968Y84943
X3500Y87520
X3533Y88258
X3624Y88995
X2968Y90516
X2970Y94252
X2945Y95089
X3013Y97494
X2943Y99415
X6965Y92808
X7149Y92293
X8685Y89771
X9338Y88972
X7613Y85300
X8718Y84287
X9444Y83517
X7618Y79794
X8728Y78800
X9489Y78028
X7618Y74283
X8695Y73277
X9781Y72486
X7620Y68772
X8752Y67809
X9546Y66961
X7618Y63260
X8719Y62228
X9920Y61431
X7619Y57748
X8786Y56707
X9937Y55892
X7618Y52235
X8759Y51212
X9722Y50430
X7618Y46724
X8719Y45718
X9851Y44864
X7618Y41212
X8759Y40224
X9725Y39359
X7654Y35700
X8772Y34689
X9693Y33972
X7618Y30190
X8679Y29195
X9785Y28358
X7618Y24678
X8745Y23687
X9781Y22910
X7619Y19167
X8745Y18166
X9724Y17368
X7618Y13657
X8659Y12645
X9728Y11902
X7620Y8135
X8648Y7089
X10573Y6411
X13131Y8140
X14289Y7139
X16109Y6422
X18644Y8144
X19789Y7135
X21624Y6389
X24169Y8140
X25315Y7136
X27046Y6386
X29656Y8141
X30695Y7136
X32606Y6453
X35180Y8141
X36255Y7157
X38061Y6420
X40691Y8141
X41879Y7126
X43600Y6411
X46222Y8144
X47267Y7242
X48994Y6426
X51697Y8139
X52852Y7219
X54846Y6163
X57225Y8142
X53836Y11860
X52889Y12682
X51699Y13655
X53884Y17375
X52831Y18161
X51700Y19165
X53827Y22914
X52845Y23667
X51697Y24678
X51481Y27526
X50823Y28012
X51498Y28460
X52649Y28435
X52806Y29244
X53861Y28390
X52747Y27461
X51699Y30181
X51699Y30189
X53817Y33927
X52856Y34740
X51699Y35702
X53467Y39501
X52848Y40264
X51713Y41213
X53600Y44963
X52848Y45718
X51714Y46723
X50876Y50079
X51712Y52236
X52836Y51260
X53413Y50510
X53530Y55993
X52831Y56767
X51715Y57749
X53502Y61533
X52728Y62289
X51713Y63261
X53612Y66951
X52748Y67804
X51714Y68772
X50884Y72061
X51713Y74284
X52865Y73309
X53423Y72563
X57223Y74283
X57225Y79794
X53539Y78063
X52826Y78816
X51713Y79796
X53539Y83627
X52666Y84301
X51713Y85308
X50831Y89219
X52869Y89800
X53535Y89054
X53056Y92876
X51034Y92816
X47982Y96331
X47421Y96962
X47039Y96235
X46916Y98671
X46582Y99138
X46195Y98690
X45331Y95819
X45300Y95368
X45527Y94629
X46473Y92719
X46981Y92769
X47308Y93183
X46020Y92485
X46202Y90817
X47268Y89815
X47983Y89072
X46204Y85307
X47293Y84306
X48021Y83558
X46899Y83094
X45415Y82331
X45240Y82911
X46198Y79797
X46979Y78434
X47352Y78804
X47904Y78077
X47648Y76740
X47250Y73320
X47861Y72572
X48172Y72029
X46205Y68771
X47314Y67793
X47993Y67068
X46204Y63260
X47259Y62277
X48034Y61447
X46202Y57749
X47309Y56782
X47960Y55966
X46201Y52235
X47228Y51330
X48049Y50510
X48906Y50068
X46201Y46727
X47294Y45764
X48069Y45008
X46204Y41212
X45921Y39609
X46786Y39609
X47294Y40279
X48006Y39450
X46867Y38464
X45886Y38476
X46222Y35702
X47317Y34763
X48334Y33948
X46222Y30190
X47213Y29282
X48312Y28380
X49437Y28012
X47285Y23667
X48320Y22907
X46221Y24678
X42856Y22871
X41856Y23708
X40690Y24678
X40346Y27563
X40379Y28610
X41564Y28529
X41845Y29216
X40689Y30190
X41596Y27498
X42946Y28463
X42854Y33914
X41840Y34671
X40689Y35702
X41411Y37069
X42098Y37949
X42085Y38669
X42518Y39477
X41824Y40199
X40683Y41214
X40276Y39222
X39652Y38786
X37008Y39440
X36255Y40186
X36013Y39481
X36048Y38371
X34822Y38465
X34833Y39516
X35176Y41211
X37025Y44976
X36236Y45783
X35177Y46725
X34785Y49568
X34786Y50645
X35728Y50645
X36365Y51263
X37119Y50520
X35761Y49568
X35177Y52236
X37069Y55959
X36287Y56726
X35177Y57749
X37064Y61498
X36270Y62315
X35181Y63260
X36908Y67079
X36216Y67792
X35178Y68772
X34750Y71592
X34820Y72700
X35885Y72714
X36196Y73270
X37021Y72575
X35899Y71620
X35178Y74284
X37103Y78054
X36239Y78778
X35175Y79796
X35385Y82733
X34577Y82782
X34547Y83726
X35346Y83745
X36115Y83745
X36278Y84321
X36993Y83607
X36242Y82733
X35174Y85308
X36924Y89112
X36282Y89826
X35180Y90816
X34268Y94631
X34277Y95077
X34280Y95549
X34111Y96132
X35166Y97867
X35500Y98223
X36401Y99261
X36408Y96885
X36913Y96479
X40690Y90819
X41804Y89810
X42544Y89140
X40692Y85308
X41778Y84321
X42540Y83601
X42181Y82577
X41873Y81859
X40780Y83172
X40689Y79795
X41812Y78765
X42540Y78074
X45493Y77323
X45412Y76214
X45560Y73033
X42575Y72580
X41779Y73263
X40688Y74285
X40690Y68772
X41871Y67823
X42530Y66984
X40690Y63259
X41880Y62252
X42479Y61573
X42110Y60722
X42085Y60032
X41411Y59144
X40689Y57748
X41837Y56732
X42491Y56040
X40685Y52235
X41827Y51232
X41508Y50569
X40550Y50534
X39930Y49529
X40693Y46725
X41774Y45791
X42541Y45002
X42663Y50524
X40260Y61330
X31523Y61519
X30752Y62277
X29667Y63260
X31505Y67065
X30802Y67784
X29669Y68771
X31583Y72569
X30780Y73309
X29666Y74284
X31481Y78079
X30758Y78824
X29666Y79796
X29884Y82752
X30790Y82704
X30702Y83716
X30781Y84320
X31557Y83609
X29660Y83706
X29008Y83697
X29046Y82781
X29664Y85306
X31394Y89136
X30736Y89786
X29665Y90820
X29475Y93656
X28797Y93644
X29106Y94645
X29436Y95086
X29728Y94611
X30199Y93703
X26843Y97694
X25713Y96512
X25486Y96154
X25614Y95573
X25653Y93679
X25118Y93487
X24750Y93137
X24274Y93458
X23969Y93149
X23489Y94870
X23532Y95774
X23192Y96078
X24303Y97793
X25054Y97536
X24863Y96886
X25189Y89809
X25038Y89147
X25073Y88528
X25085Y87793
X25108Y87057
X23975Y87138
X23952Y87828
X23975Y88505
X23975Y89113
X23792Y89791
X25941Y89011
X23740Y84331
X23906Y83371
X23035Y82554
X25123Y83663
X25227Y84239
X25573Y82558
X26089Y83601
X25177Y78846
X26058Y77969
X23646Y78941
X20707Y77945
X19762Y78819
X18629Y79763
X19794Y82046
X19998Y82517
X20613Y83433
X19697Y84348
X18642Y85306
X20329Y89123
X19740Y89819
X18643Y90820
X18800Y94994
X14998Y89067
X14170Y89830
X13127Y90818
X13621Y92370
X13206Y93228
X12630Y93219
X12174Y93666
X12088Y94296
X12992Y94897
X12101Y96120
X12939Y97099
X14458Y96167
X14361Y95609
X13916Y99138
X13548Y99457
X12744Y99555
X9071Y92818
X6864Y89205
X13130Y85308
X14166Y84324
X15155Y83465
X14038Y82503
X14038Y81527
X13045Y81897
X13079Y82890
X13133Y79796
X14224Y78814
X14055Y77910
X15105Y77975
X14055Y76682
X12911Y76783
X12927Y77994
X13127Y74287
X14169Y73296
X15226Y72566
X13130Y68771
X14246Y67794
X15274Y66956
X13130Y63260
X14188Y62295
X15208Y61490
X13129Y57746
X14195Y56734
X15325Y55898
X13131Y52236
X14232Y51253
X15223Y50506
X13126Y46723
X14204Y45748
X15235Y44904
X13130Y41212
X14230Y40202
X15307Y39432
X18196Y39117
X18248Y37088
X18642Y35702
X19364Y37155
X19925Y37977
X19930Y38660
X20906Y39360
X19774Y40680
X18642Y41213
X20819Y44867
X19785Y45759
X18638Y46723
X18443Y49657
X18489Y50591
X19588Y50556
X19832Y51276
X20726Y50525
X19588Y49575
X18641Y52237
X20718Y55949
X19747Y56776
X18643Y57746
X19364Y59017
X20005Y60159
X20026Y60749
X20725Y61449
X19783Y62326
X18643Y63258
X18250Y61314
X20759Y66883
X19816Y67800
X18641Y68771
X20687Y72548
X19726Y73276
X18640Y74281
X23657Y73214
X23895Y72586
X23975Y71596
X23935Y70304
X25106Y70284
X25025Y71435
X25005Y72626
X25210Y73287
X26032Y72573
X25255Y67750
X25972Y66961
X25126Y66569
X25147Y65418
X23835Y65519
X23895Y66750
X23780Y67863
X23661Y62228
X24072Y61356
X24029Y59969
X25137Y59912
X25151Y61230
X25186Y62293
X26084Y61463
X25202Y56726
X25038Y55631
X26017Y55950
X25017Y54439
X23907Y55045
X23597Y56876
X23487Y51414
X23948Y50624
X23968Y49473
X23867Y48201
X25099Y48241
X25038Y49453
X25140Y50644
X25141Y51253
X26154Y50519
X23634Y45801
X23966Y44803
X25094Y44433
X25181Y45705
X26053Y44951
X25077Y43155
X24017Y43272
X23511Y40423
X23997Y39458
X24020Y38278
X25025Y38243
X25037Y39528
X25219Y40219
X26127Y39405
X24169Y35700
X25200Y34733
X26285Y33945
X24169Y30190
X25242Y29200
X25239Y28592
X25171Y27346
X23954Y27482
X23993Y28670
X26276Y28427
X24169Y24678
X25196Y23696
X26267Y22913
X24169Y19162
X25205Y18125
X26260Y17348
X24172Y13650
X25228Y12656
X26270Y11871
X29655Y13658
X30739Y12656
X31812Y11877
X35177Y13654
X36187Y12667
X37337Y11842
X37274Y17365
X36289Y18181
X35178Y19164
X37301Y22898
X36276Y23668
X35178Y24678
X34919Y27442
X35974Y27426
X35901Y28610
X36263Y29173
X37318Y28421
X34928Y28634
X35178Y30190
X37279Y33922
X36255Y34640
X35178Y35702
X31777Y33871
X30724Y34705
X29655Y35703
X31663Y39487
X30770Y40210
X29664Y41213
X31496Y45008
X30716Y45758
X29664Y46724
X31565Y50542
X30782Y51253
X29665Y52236
X31481Y55982
X30800Y56758
X29668Y57747
X19768Y34768
X20779Y33898
X18642Y30189
X19781Y29201
X19524Y28631
X19583Y27385
X18268Y27414
X18327Y28612
X20781Y28419
X18642Y24678
X19793Y23656
X20770Y22914
X18643Y19171
X19712Y18185
X20768Y17381
X18643Y13656
X19681Y12658
X20808Y11855
X15284Y11882
X14174Y12665
X13130Y13649
X15276Y17424
X14214Y18144
X13133Y19167
X15274Y22904
X14249Y23661
X13133Y24678
X15249Y28481
X14179Y29227
X13130Y30189
X15248Y33960
X14211Y34729
X13130Y35702
X29654Y30190
X30673Y29163
X31872Y28473
X29655Y24678
X30810Y23702
X31812Y22860
X29654Y19166
X30803Y18153
X31754Y17338
X40689Y19166
X41840Y18218
X42898Y17368
X40689Y13652
X41803Y12648
X42845Y11867
X46220Y13656
X47287Y12720
X48370Y11866
X48309Y17429
X47245Y18171
X46223Y19166
X57230Y19165
X57228Y13655
X57228Y24678
X57227Y30190
X57228Y35702
X56441Y40139
X57225Y46725
X57223Y52237
X57226Y57750
X57224Y63260
X57225Y68772
X57224Y85309
X57224Y90818
X56272Y95344
X56262Y95739
X56268Y96141
X57244Y96990
X57173Y98251
X56935Y99233
T03
X52115Y90689
X51653Y90375
X52602Y90359
X14837Y96681
X8503Y90322
X7995Y90791
X7516Y90370
T04
X13537Y72176
X13537Y71558
X13537Y70940
X13537Y50129
X13537Y49511
X13537Y48893
X13537Y28082
X13537Y27464
X13537Y26846
X30073Y26846
X30073Y27464
X30073Y28082
X30073Y48893
X30073Y49511
X30073Y50129
X30073Y70940
X30073Y71558
X30073Y72176
X46608Y72176
X46608Y71558
X46608Y70940
X46608Y50129
X46608Y49511
X46608Y48893
X46608Y28082
X46608Y27464
X46608Y26846
T05
X41539Y16373
X40739Y16373
X35993Y32979
X35193Y32979
X30520Y38549
X29720Y38549
X24978Y33021
X24178Y33021
X19528Y16387
X18728Y16387
X8396Y16408
X7596Y16408
X7658Y38464
X8458Y38464
X13138Y43944
X13938Y43944
X8437Y60485
X7637Y60485
X18597Y71531
X19397Y71531
X24128Y77139
X24928Y77139
X19055Y93314
X19055Y94114
X13946Y88073
X13146Y88073
X8451Y82595
X7651Y82595
X29677Y60576
X30477Y60576
X40747Y71513
X41547Y71513
X36003Y77059
X35203Y77059
X40943Y93385
X40943Y94185
X35887Y94021
X35887Y96021
X46219Y88072
X47019Y88072
X51742Y82579
X52542Y82579
X52561Y60489
X51761Y60489
X41563Y49446
X40763Y49446
X46197Y44018
X46997Y44018
X51762Y38420
X52562Y38420
X52545Y16346
X51745Y16346
T06
X51024Y13685
X53206Y13685
X53208Y19195
X51025Y19195
X47678Y19195
X45548Y19196
X42201Y19196
X40014Y19196
X40015Y24708
X42199Y24708
X45546Y24708
X47675Y24708
X51021Y24708
X53206Y24708
X56552Y24708
X56555Y19195
X56553Y13685
X56550Y8172
X53203Y8172
X51021Y8169
X47675Y8169
X45546Y8174
X42200Y8174
X40016Y8171
X36669Y8171
X34504Y8171
X31158Y8171
X28980Y8171
X25634Y8171
X23493Y8170
X20147Y8170
X17969Y8174
X14622Y8174
X12456Y8170
X9109Y8170
X6945Y8174
X3598Y8174
X3596Y13687
X6943Y13687
X9108Y13679
X12455Y13679
X14621Y13686
X17968Y13686
X20150Y13680
X20147Y19192
X17967Y19201
X14621Y19201
X12458Y19197
X9111Y19197
X6943Y19197
X3597Y19197
X3596Y24708
X6943Y24708
X9111Y24708
X12458Y24708
X14620Y24708
X17966Y24708
X20147Y24708
X23493Y24708
X25633Y24708
X28979Y24708
X31156Y24708
X34502Y24708
X36668Y24708
X36667Y19196
X34503Y19194
X31156Y19194
X28979Y19196
X25632Y19196
X23494Y19192
X23496Y13680
X25633Y13688
X28979Y13688
X31155Y13684
X34501Y13684
X36667Y13682
X40013Y13682
X42198Y13686
X45544Y13686
X47677Y13685
X47677Y30219
X45546Y30220
X42200Y30220
X40013Y30220
X40013Y35732
X42200Y35732
X45547Y35732
X47677Y35732
X51024Y35732
X53206Y35732
X53203Y41244
X51037Y41243
X47691Y41243
X45529Y41242
X42182Y41242
X40007Y41244
X40017Y46755
X42179Y46757
X45525Y46757
X47692Y46753
X51038Y46753
X53203Y46755
X56549Y46755
X56549Y41244
X56552Y35732
X56552Y30220
X53205Y30220
X51023Y30219
X51037Y52266
X53201Y52267
X53204Y57780
X51039Y57779
X47693Y57779
X45526Y57779
X42180Y57779
X40014Y57778
X40014Y63290
X42182Y63290
X45529Y63290
X47691Y63291
X51038Y63291
X53202Y63290
X56548Y63290
X56550Y57780
X56548Y52267
X47690Y52266
X45526Y52265
X42179Y52265
X40009Y52265
X36663Y52265
X34502Y52266
X31155Y52266
X28990Y52266
X25643Y52266
X23475Y52263
X20129Y52263
X17966Y52267
X14619Y52267
X12455Y52266
X9109Y52266
X6942Y52265
X3596Y52265
X3597Y57778
X6943Y57778
X9107Y57776
X12453Y57776
X14621Y57776
X17967Y57776
X20132Y57779
X23479Y57779
X25646Y57777
X28993Y57777
X31155Y57779
X34502Y57779
X36667Y57778
X36667Y63290
X34506Y63290
X31159Y63290
X28992Y63290
X25645Y63290
X23478Y63288
X20132Y63288
X17967Y63288
X14621Y63288
X12454Y63290
X9108Y63290
X6943Y63290
X3596Y63290
X3598Y68802
X6944Y68802
X9108Y68801
X12455Y68801
X14619Y68801
X17966Y68801
X20132Y68802
X23479Y68802
X25647Y68801
X28993Y68801
X31156Y68802
X34503Y68802
X36668Y68802
X36666Y74315
X34502Y74314
X31156Y74314
X28991Y74314
X25644Y74314
X23476Y74313
X20130Y74313
X17964Y74311
X14618Y74311
X12452Y74317
X9105Y74317
X6943Y74313
X3596Y74313
X3596Y79824
X6943Y79824
X9111Y79826
X12457Y79826
X14618Y79826
X17965Y79826
X20132Y79827
X23479Y79827
X25644Y79826
X28990Y79826
X31153Y79826
X34499Y79826
X36667Y79825
X40014Y79825
X42176Y79827
X45522Y79827
X47691Y79826
X51038Y79826
X53203Y79824
X53201Y74313
X51038Y74314
X47691Y74314
X45526Y74315
X42179Y74315
X40013Y74315
X40015Y68802
X42183Y68801
X45530Y68801
X47692Y68802
X51039Y68802
X53203Y68802
X56550Y68802
X56548Y74313
X56550Y79824
X56549Y85339
X56548Y90848
X53202Y90848
X51038Y90848
X47691Y90848
X45526Y90847
X42180Y90847
X40014Y90849
X40017Y85338
X42182Y85337
X45528Y85337
X47691Y85338
X51037Y85338
X53202Y85339
X36670Y85338
X34499Y85338
X31152Y85338
X28989Y85336
X25642Y85336
X23479Y85337
X20133Y85337
X17966Y85336
X14620Y85336
X12454Y85338
X9108Y85338
X6938Y85330
X3591Y85330
X3596Y90850
X6943Y90850
X9108Y90850
X12455Y90850
X14621Y90850
X17967Y90850
X20131Y90851
X23478Y90851
X25643Y90850
X28990Y90850
X31158Y90846
X34505Y90846
X36668Y90849
X36671Y46755
X34502Y46755
X31155Y46755
X28989Y46754
X25642Y46754
X23479Y46754
X20132Y46754
X17963Y46753
X14616Y46753
X12451Y46753
X9104Y46753
X6943Y46754
X3596Y46754
X3596Y41242
X6943Y41242
X9108Y41242
X12454Y41242
X14620Y41243
X17966Y41243
X20130Y41243
X23477Y41243
X25642Y41243
X28989Y41243
X31154Y41241
X34501Y41241
X36661Y41244
X36667Y35732
X34503Y35732
X31156Y35732
X28979Y35733
X25633Y35733
X23494Y35730
X23494Y30220
X25632Y30220
X28978Y30220
X31156Y30220
X34503Y30220
X36667Y30220
X20147Y30220
X17966Y30219
X14620Y30219
X12455Y30219
X9108Y30219
X6943Y30220
X3596Y30220
X3632Y35730
X6978Y35730
X9108Y35732
X12455Y35732
X14620Y35732
X17967Y35732
X20147Y35730
T07
X8714Y93842
X7336Y93842
X51431Y93842
X52809Y93842
T08
X52120Y88094
X52120Y77070
X52120Y66046
X52120Y55023
X52120Y43999
X52120Y32975
X52120Y21952
X52120Y10928
X41096Y10928
X41096Y21952
X41096Y32975
X41096Y43999
X41096Y55023
X41096Y66046
X41096Y77070
X41096Y88094
X30073Y88094
X30073Y77070
X30073Y66046
X30073Y55023
X30073Y43999
X30073Y32975
X30073Y21952
X30073Y10928
X19049Y10928
X19049Y21952
X19049Y32975
X19049Y43999
X19049Y55023
X19049Y66046
X19049Y77070
X19049Y88094
X8025Y77070
X8025Y66046
X8025Y55023
X8025Y43999
X8025Y32975
X8025Y21952
X8025Y10928
T09
X8025Y88094
M30
